<svg height="511pt" viewBox="-73 1 511 511.99948" width="511pt" xmlns="http://www.w3.org/2000/svg"><path d="m140.484375 241.210938c14.871094 0 26.972656 12.101562 26.972656 26.972656v18.160156c0 8.589844 6.964844 15.554688 15.554688 15.554688 8.589843 0 15.554687-6.964844 15.554687-15.554688v-18.160156c0-14.871094 12.097656-26.972656 26.96875-26.972656 8.589844 0 15.554688-6.964844 15.554688-15.554688s-6.964844-15.554688-15.554688-15.554688c-16.773437 0-31.910156 7.152344-42.523437 18.5625-10.613281-11.414062-25.75-18.5625-42.527344-18.5625-8.589844 0-15.554687 6.964844-15.554687 15.554688s6.964843 15.554688 15.554687 15.554688zm0 0"/><path d="m183.011719 365.492188c62.78125 0 113.855469-51.074219 113.855469-113.851563 0-62.78125-51.078126-113.855469-113.855469-113.855469-62.78125 0-113.855469 51.074219-113.855469 113.855469 0 62.777344 51.074219 113.851563 113.855469 113.851563zm0-196.597657c45.625 0 82.746093 37.117188 82.746093 82.742188s-37.121093 82.746093-82.746093 82.746093-82.746094-37.121093-82.746094-82.746093 37.121094-82.742188 82.746094-82.742188zm0 0"/><path d="m359.785156 30.660156-33.390625-27.171875c-4.753906-3.863281-11.335937-4.582031-16.808593-1.828125l-26.398438 13.28125-26.402344-13.28125c-4.398437-2.214844-9.585937-2.210937-13.980468 0l-26.402344 13.28125-26.402344-13.28125c-4.398438-2.214844-9.582031-2.214844-13.980469 0l-26.398437 13.28125-26.402344-13.28125c-4.398438-2.214844-9.582031-2.210937-13.980469 0l-26.402343 13.28125-26.398438-13.28125c-5.472656-2.753906-12.054688-2.035156-16.808594 1.828125l-33.390625 27.171875c-3.632812 2.953125-5.738281 7.382813-5.738281 12.066406v426.546876c0 4.683593 2.105469 9.113281 5.738281 12.066406l33.390625 27.171875c4.753906 3.863281 11.332032 4.582031 16.808594 1.828125l26.398438-13.28125 26.402343 13.28125c4.398438 2.210937 9.582031 2.210937 13.980469 0l26.398438-13.28125 26.402343 13.28125c4.398438 2.210937 9.582031 2.210937 13.980469 0l26.398438-13.28125 26.402343 13.28125c4.398438 2.210937 9.582031 2.210937 13.980469 0l26.398438-13.28125 26.402343 13.28125c2.214844 1.113281 4.605469 1.660156 6.988281 1.660156 3.507813 0 6.988282-1.1875 9.820313-3.488281l33.390625-27.171875c3.628906-2.953125 5.738281-7.382813 5.738281-12.066406v-426.546876c.003907-4.683593-2.105469-9.113281-5.734375-12.066406zm-25.371094 69.792969v311.097656h-302.804687v-311.097656zm-282.960937-66.476563 24.394531 12.273438c4.394532 2.214844 9.582032 2.214844 13.980469 0l26.398437-13.28125 26.402344 13.28125c4.394532 2.214844 9.582032 2.214844 13.980469 0l26.402344-13.28125 26.398437 13.28125c4.398438 2.214844 9.585938 2.214844 13.984375 0l26.398438-13.28125 26.402343 13.28125c4.398438 2.214844 9.582032 2.214844 13.980469 0l24.394531-12.273438 19.839844 16.144532v19.222656h-302.800781v-19.222656zm263.117187 444.046876-24.394531-12.273438c-4.398437-2.210938-9.582031-2.210938-13.980469 0l-26.402343 13.285156-26.398438-13.285156c-4.398437-2.210938-9.582031-2.210938-13.980469 0l-26.402343 13.285156-26.398438-13.285156c-2.199219-1.105469-4.59375-1.660156-6.992187-1.660156-2.394532 0-4.792969.554687-6.992188 1.660156l-26.398437 13.285156-26.398438-13.285156c-4.398437-2.210938-9.585937-2.210938-13.984375 0l-24.394531 12.273438-19.84375-16.144532v-19.21875h302.804687v19.21875zm0 0"/></svg>