<svg height="512pt" viewBox="0 -28 512 512" width="512pt" xmlns="http://www.w3.org/2000/svg"><path d="m496.882812 173.625h-225.769531v-52.125c2.753907.152344 5.738281.246094 8.921875.246094 19.363282 0 45.777344-3.484375 67.871094-18.90625 39.453125-27.542969 47.921875-81.15625 48.261719-83.425782 1.195312-7.945312-4.035157-15.441406-11.90625-17.058593-2.246094-.460938-55.496094-10.992188-94.949219 16.550781-15.34375 10.710938-25.996094 25.363281-33.3125 39.40625-7.316406-14.042969-17.96875-28.695312-33.3125-39.40625-39.453125-27.542969-92.703125-17.011719-94.949219-16.550781-7.871093 1.617187-13.101562 9.113281-11.90625 17.058593.339844 2.269532 8.808594 55.882813 48.261719 83.425782 22.09375 15.421875 48.503906 18.90625 67.871094 18.90625 3.179687 0 6.167968-.09375 8.917968-.246094v52.125h-225.765624c-8.347657 0-15.117188 6.769531-15.117188 15.117188v252.492187c0 8.347656 6.769531 15.117187 15.117188 15.117187h481.765624c8.347657 0 15.117188-6.769531 15.117188-15.117187v-252.492187c0-8.347657-6.769531-15.117188-15.117188-15.117188zm-190.265624-129.929688c17.6875-12.34375 40.640624-13.945312 55.714843-13.347656-4.632812 14.367188-14.050781 35.351563-31.734375 47.699219-17.6875 12.347656-40.640625 13.953125-55.714844 13.351563 4.636719-14.371094 14.050782-35.355469 31.734376-47.703126zm-125.21875 34.351563c-17.683594-12.347656-27.101563-33.339844-31.734376-47.699219 15.082032-.601562 38.03125 1.003906 55.714844 13.347656 17.667969 12.335938 27.085938 33.300782 31.726563 47.664063-15.121094.578125-38.132813-1.042969-55.707031-13.3125zm300.367187 348.066406h-451.53125v-222.25h210.644531v32.699219c-36.835937 7.089844-64.753906 39.546875-64.753906 78.421875l.003906.664063c.140625 17.070312 10.070313 31.703124 25.917969 38.191406 3.925781 1.609375 7.988281 2.589844 12.0625 2.972656.402344 4.070312 1.410156 8.152344 3.046875 12.140625 6.503906 15.863281 21.171875 25.792969 38.277344 25.914063h.5625c.886718 0 1.773437-.015626 2.660156-.042969 41.945312-1.367188 75.847656-35.300781 77.175781-77.253907.035157-1.070312.050781-2.132812.039063-3.183593-.125-17.089844-10.054688-31.746094-25.914063-38.246094-3.945312-1.617187-8.03125-2.601563-12.125-2.980469-.378906-4.097656-1.363281-8.183594-2.980469-12.132812-4.554687-11.125-13.128906-19.328125-23.738281-23.277344v-33.886719h210.652344zm-187.976563-122.914062c2.15625 0 3.898438.589843 4.699219.917969 2.132813.875 7.097657 3.644531 7.148438 10.5.003906.660156-.003907 1.324218-.023438 1.992187-.828125 26.0625-21.886719 47.144531-47.949219 47.992187-.675781.023438-1.347656.03125-2.023437.027344-6.859375-.046875-9.636719-5.019531-10.511719-7.152344-.699218-1.703124-2.578125-7.65625 2.535156-12.773437l.007813-.003906 38.046875-38.050781c2.703125-2.703126 5.648438-3.449219 8.070312-3.449219zm-29.457031-17.925781-38.046875 38.050781c-5.117187 5.113281-11.074218 3.230469-12.78125 2.535156-2.128906-.875-7.082031-3.636719-7.140625-10.421875v-.453125c0-27.371094 22.269531-49.640625 49.636719-49.640625h.414062c6.824219.058594 9.585938 5.011719 10.457032 7.140625.699218 1.707031 2.578125 7.667969-2.53125 12.78125-.003906.003906-.007813.007813-.007813.007813zm0 0"/></svg>