<svg height="512pt" viewBox="-76 0 512 512.00005" width="512pt" xmlns="http://www.w3.org/2000/svg"><path d="m268.046875 268.355469c-38.980469-30.695313-72.644531-57.207031-72.644531-102.464844 0-81.125 60.816406-138.925781 61.433594-139.5 6.148437-5.726563 6.5-15.355469.785156-21.515625-5.726563-6.171875-15.367188-6.53125-21.539063-.804688-2.019531 1.871094-35.621093 33.582032-55.917969 84.554688-20.292968-50.972656-53.898437-82.683594-55.917968-84.554688-6.160156-5.71875-15.773438-5.359374-21.503906.792969-5.726563 6.148438-5.386719 15.785157.753906 21.527344.613281.574219 61.375 58.320313 61.429687 139.386719 0 .039062-.007812.074218-.007812.113281 0 45.257813-33.660157 71.769531-72.640625 102.464844-43.253906 34.0625-92.277344 72.667969-92.277344 144.023437 0 58.65625 36.253906 99.621094 88.167969 99.621094 16.113281 0 31.835937-3.871094 45.996093-11.257812 14.160157 7.390624 29.882813 11.257812 45.996094 11.257812 16.117188 0 31.839844-3.871094 46-11.257812 14.15625 7.390624 29.882813 11.257812 45.996094 11.257812 51.910156 0 88.167969-40.964844 88.167969-99.621094 0-71.355468-49.023438-109.960937-92.277344-144.023437zm-237.570313 144.023437c0-56.566406 39.179688-87.417968 80.65625-120.082031 10.773438-8.480469 21.640626-17.042969 31.824219-26.117187-1.152343 2.699218-2.316406 5.390624-3.488281 8.101562-15.082031 34.898438-30.679688 70.984375-30.679688 138.097656 0 29.46875 3.910157 50.753906 7.140626 63.316406-8.707032 3.828126-18.128907 5.828126-27.761719 5.828126-42.582031 0-57.691407-37.25-57.691407-69.144532zm116.308594 60.546875c-2.546875-8.414062-7.519531-28.902343-7.519531-60.546875 0-60.808594 13.6875-92.476562 28.179687-126.007812 4.347657-10.058594 8.738282-20.222656 12.714844-31.1875 3.976563 10.964844 8.371094 21.128906 12.71875 31.1875 14.492188 33.53125 28.183594 65.199218 28.183594 126.007812 0 31.683594-4.988281 52.183594-7.515625 60.546875-10.199219 5.640625-21.640625 8.597657-33.386719 8.597657-11.742187 0-23.179687-2.957032-33.375-8.597657zm125.371094 8.597657c-9.632812 0-19.054688-2-27.761719-5.828126 3.230469-12.5625 7.144531-33.847656 7.144531-63.316406 0-67.113281-15.597656-103.199218-30.683593-138.097656-1.171875-2.707031-2.335938-5.402344-3.484375-8.101562 10.183594 9.078124 21.046875 17.636718 31.820312 26.117187 41.476563 32.664063 80.65625 63.519531 80.65625 120.082031 0 31.894532-15.109375 69.144532-57.691406 69.144532zm0 0"/></svg>