<svg height="511pt" viewBox="1 -29 511.999 511" width="511pt" xmlns="http://www.w3.org/2000/svg"><path d="m256 370.414062c-7.855469 0-15.382812 6.90625-15.019531 15.019532.363281 8.136718 6.597656 15.019531 15.019531 15.019531 7.855469 0 15.382812-6.90625 15.019531-15.019531-.363281-8.136719-6.597656-15.019532-15.019531-15.019532zm0 0"/><path d="m323.332031 359.277344c-7.855469 0-15.382812 6.90625-15.019531 15.019531.363281 8.136719 6.601562 15.019531 15.019531 15.019531 7.859375 0 15.386719-6.910156 15.023438-15.019531-.367188-8.140625-6.601563-15.019531-15.023438-15.019531zm0 0"/><path d="m378.769531 330.164062c-7.855469 0-15.382812 6.910157-15.019531 15.019532.363281 8.140625 6.597656 15.023437 15.019531 15.023437 7.855469 0 15.382813-6.910156 15.019531-15.023437-.363281-8.136719-6.597656-15.019532-15.019531-15.019532zm0 0"/><path d="m422.054688 288.652344c-7.855469 0-15.382813 6.90625-15.019532 15.019531.363282 8.136719 6.601563 15.019531 15.019532 15.019531 7.859374 0 15.386718-6.90625 15.019531-15.019531-.363281-8.140625-6.597657-15.019531-15.019531-15.019531zm0 0"/><path d="m449.054688 238.109375c-7.855469 0-15.382813 6.90625-15.019532 15.019531.363282 8.136719 6.601563 15.019532 15.019532 15.019532 7.859374 0 15.386718-6.90625 15.023437-15.019532-.367187-8.136718-6.601563-15.019531-15.023437-15.019531zm0 0"/><path d="m454.054688 35.910156 11.132812-8.394531c6.621094-4.996094 7.945312-14.414063 2.949219-21.039063-4.996094-6.625-14.414063-7.941406-21.035157-2.949218l-82.355468 62.101562c-6.625 4.996094-7.945313 14.414063-2.949219 21.039063 2.953125 3.914062 7.453125 5.976562 12.003906 5.976562 3.148438 0 6.324219-.984375 9.035157-3.027343l11.921874-8.988282c14.253907 24.414063 21.726563 52.023438 21.726563 80.699219 0 88.492187-71.992187 160.484375-160.484375 160.484375s-160.484375-71.996094-160.484375-160.488281c0-28.675781 7.46875-56.28125 21.726563-80.699219l11.921874 8.992188c2.707032 2.039062 5.882813 3.027343 9.03125 3.027343 4.554688 0 9.054688-2.0625 12.007813-5.980469 4.992187-6.621093 3.671875-16.039062-2.949219-21.035156l-82.355468-62.101562c-6.621094-4.992188-16.039063-3.675782-21.035157 2.949218-4.996093 6.625-3.675781 16.042969 2.949219 21.039063l11.132812 8.394531c-37.472656 45.679688-57.945312 102.652344-57.945312 162.199219 0 68.382813 26.628906 132.667969 74.980469 181.019531 48.351562 48.355469 112.640625 74.980469 181.019531 74.980469s132.667969-26.625 181.019531-74.980469c48.351563-48.351562 74.980469-112.636718 74.980469-181.019531 0-59.546875-20.472656-116.519531-57.945312-162.199219zm-198.054688 388.160156c-124.59375 0-225.960938-101.363281-225.960938-225.960937 0-52.964844 18.351563-103.621094 51.917969-144.09375l11.160157 8.414063c-18.128907 29.746093-27.644532 63.644531-27.644532 98.894531 0 105.058593 85.472656 190.527343 190.527344 190.527343s190.527344-85.46875 190.527344-190.527343c0-35.25-9.515625-69.148438-27.640625-98.894531l11.15625-8.414063c33.566406 40.472656 51.917969 91.128906 51.917969 144.09375 0 124.597656-101.367188 225.960937-225.960938 225.960937zm0 0"/><path d="m188.667969 359.277344c-7.859375 0-15.386719 6.90625-15.023438 15.019531.367188 8.136719 6.601563 15.019531 15.023438 15.019531 7.855469 0 15.382812-6.910156 15.019531-15.019531-.363281-8.140625-6.601562-15.019531-15.019531-15.019531zm0 0"/><path d="m133.230469 330.164062c-7.855469 0-15.382813 6.910157-15.019531 15.019532.363281 8.140625 6.597656 15.023437 15.019531 15.023437 7.855469 0 15.382812-6.910156 15.019531-15.023437-.363281-8.136719-6.597656-15.019532-15.019531-15.019532zm0 0"/><path d="m89.945312 288.652344c-7.859374 0-15.386718 6.90625-15.019531 15.019531.363281 8.136719 6.597657 15.019531 15.019531 15.019531 7.855469 0 15.382813-6.90625 15.019532-15.019531-.363282-8.140625-6.601563-15.019531-15.019532-15.019531zm0 0"/><path d="m62.945312 238.109375c-7.859374 0-15.386718 6.90625-15.023437 15.019531.367187 8.136719 6.601563 15.019532 15.023437 15.019532 7.855469 0 15.382813-6.90625 15.019532-15.019532-.363282-8.136718-6.601563-15.019531-15.019532-15.019531zm0 0"/><path d="m64.125 197.886719c-.363281-8.136719-6.597656-15.019531-15.019531-15.019531-7.855469 0-15.382813 6.910156-15.019531 15.019531.363281 8.140625 6.597656 15.023437 15.019531 15.023437 7.855469 0 15.382812-6.910156 15.019531-15.023437zm0 0"/><path d="m462.894531 182.867188c-7.855469 0-15.382812 6.910156-15.019531 15.019531.363281 8.140625 6.597656 15.023437 15.019531 15.023437 7.855469 0 15.382813-6.910156 15.019531-15.023437-.363281-8.136719-6.597656-15.019531-15.019531-15.019531zm0 0"/></svg>