<svg height="512pt" viewBox="0 0 512 512.00201" width="512pt" xmlns="http://www.w3.org/2000/svg"><path d="m507.574219 245.316406-44.738281-44.738281 16.375-61.113281c2.160156-8.058594-2.621094-16.34375-10.679688-18.503906l-61.117188-16.375-16.375-61.117188c-2.160156-8.058594-10.445312-12.839844-18.5-10.679688l-61.117187 16.375-44.738281-44.738281c-2.832032-2.832031-6.675782-4.425781-10.683594-4.425781s-7.847656 1.589844-10.679688 4.425781l-44.742187 44.738281-61.113281-16.375c-3.871094-1.039062-7.996094-.496093-11.464844 1.507813s-6 5.304687-7.039062 9.175781l-16.375 61.113282-61.113282 16.375c-3.871094 1.039062-7.171875 3.570312-9.175781 7.039062-2.003906 3.472656-2.546875 7.59375-1.507813 11.464844l16.375 61.113281-44.738281 44.738281c-5.898437 5.902344-5.898437 15.464844 0 21.367188l44.738281 44.738281-16.375 61.117187c-1.039062 3.867188-.496093 7.992188 1.511719 11.460938 2 3.46875 5.300781 6.003906 9.171875 7.039062l61.113282 16.375 16.378906 61.117188c1.035156 3.871094 3.566406 7.167969 7.039062 9.171875 3.46875 2.003906 7.59375 2.546875 11.460938 1.511719l61.117187-16.375 44.738281 44.738281c2.832032 2.832031 6.675782 4.425781 10.679688 4.425781 4.007812 0 7.851562-1.59375 10.683594-4.425781l44.738281-44.738281 61.117187 16.375c8.050782 2.15625 16.34375-2.625 18.5-10.683594l16.378907-61.113281 61.113281-16.378907c8.058594-2.15625 12.84375-10.441406 10.683594-18.5l-16.378906-61.117187 44.738281-44.738281c5.902343-5.902344 5.902343-15.464844 0-21.367188zm-72.269531 50.90625c-3.816407 3.816406-5.308594 9.382813-3.910157 14.59375l14.722657 54.949219-54.949219 14.722656c-5.210938 1.394531-9.285157 5.46875-10.679688 10.679688l-14.722656 54.949219-54.949219-14.722657c-5.214844-1.398437-10.777344.09375-14.59375 3.910157l-40.222656 40.222656-40.222656-40.222656c-2.871094-2.871094-6.730469-4.425782-10.683594-4.425782-1.304688 0-2.617188.167969-3.910156.515625l-54.945313 14.722657-14.722656-54.949219c-1.398437-5.210938-5.46875-9.285157-10.683594-10.679688l-54.949219-14.722656 14.726563-54.949219c1.394531-5.210937-.09375-10.777344-3.910156-14.59375l-40.226563-40.222656 40.226563-40.222656c3.816406-3.816406 5.304687-9.382813 3.910156-14.59375l-14.726563-54.949219 54.949219-14.722656c5.214844-1.394531 9.285157-5.46875 10.683594-10.679688l14.722656-54.949219 54.945313 14.722657c5.214844 1.398437 10.777344-.09375 14.59375-3.910157l40.222656-40.222656 40.226562 40.222656c3.816407 3.816407 9.378907 5.308594 14.589844 3.910157l54.949219-14.722657 14.722656 54.949219c1.398438 5.210938 5.46875 9.285157 10.683594 10.679688l54.945313 14.722656-14.722657 54.949219c-1.398437 5.210937.09375 10.777344 3.910157 14.59375l40.222656 40.222656zm0 0"/><path d="m256 90.347656c-91.339844 0-165.648438 74.3125-165.648438 165.652344s74.308594 165.652344 165.648438 165.652344 165.652344-74.3125 165.652344-165.652344-74.308594-165.652344-165.652344-165.652344zm0 301.089844c-74.679688 0-135.4375-60.757812-135.4375-135.4375s60.757812-135.4375 135.4375-135.4375 135.4375 60.757812 135.4375 135.4375-60.757812 135.4375-135.4375 135.4375zm0 0"/></svg>