<svg height="512pt" viewBox="-87 0 512 512.00102" width="512pt" xmlns="http://www.w3.org/2000/svg"><path d="m338.371094 169.1875c0-4.183594-1.714844-8.179688-4.742188-11.0625-.71875-.683594-14.167968-13.351562-34.828125-23.671875 12.734375-19.261719 18.046875-36.957031 18.328125-37.910156 1.179688-4.011719.664063-8.328125-1.425781-11.949219s-5.574219-6.226562-9.636719-7.210938c-.964844-.234374-18.945312-4.476562-41.996094-3.085937 1.394532-23.046875-2.851562-41.03125-3.082031-41.992187-.984375-4.066407-3.589843-7.546876-7.210937-9.636719-3.617188-2.089844-7.9375-2.609375-11.949219-1.425781-.949219.28125-18.648437 5.59375-37.910156 18.324218-10.320313-20.65625-22.988281-34.105468-23.671875-34.824218-2.882813-3.027344-6.882813-4.742188-11.0625-4.742188-4.179688 0-8.179688 1.714844-11.058594 4.742188-.6875.71875-13.351562 14.167968-23.671875 34.824218-19.265625-12.730468-36.960937-18.042968-37.910156-18.324218-4.011719-1.183594-8.332031-.664063-11.949219 1.425781-3.621094 2.089843-6.226562 5.574219-7.210938 9.636719-.230468.960937-4.476562 18.945312-3.085937 41.996093-23.042969-1.394531-41.027344 2.851563-41.992187 3.082031-4.0625.984376-7.546876 3.589844-9.636719 7.210938-2.09375 3.621094-2.605469 7.941406-1.425781 11.949219.28125.953125 5.59375 18.648437 18.324218 37.914062-20.65625 10.316407-34.105468 22.984375-34.824218 23.667969-3.027344 2.882812-4.742188 6.882812-4.742188 11.0625s1.714844 8.179688 4.742188 11.058594c.71875.683594 14.167968 13.351562 34.824218 23.671875-12.730468 19.265625-18.042968 36.960937-18.324218 37.910156-1.179688 4.011719-.664063 8.332031 1.425781 11.949219 2.089843 3.621094 5.574219 6.226562 9.636719 7.210937.960937.234375 18.941406 4.480469 41.992187 3.085938-1.390625 23.050781 2.855469 41.03125 3.085937 41.996093.984376 4.0625 3.589844 7.546876 7.210938 9.636719 3.621094 2.089844 7.9375 2.605469 11.949219 1.421875.953125-.277344 18.648437-5.59375 37.910156-18.324218 6.851563 13.714843 14.730469 24.246093 19.457031 29.988281v49.671875c-2.976562-2.910156-6.234375-5.648438-9.796875-8.136719-32.859375-22.941406-77.023437-14.207031-78.890625-13.824219-7.953125 1.632813-13.234375 9.203125-12.027344 17.230469.28125 1.882813 7.308594 46.347656 40.171876 69.289063 18.4375 12.871093 40.429687 15.773437 56.511718 15.773437 1.394532 0 2.734375-.023437 4.03125-.0625v37.992187c0 8.4375 6.839844 15.273438 15.273438 15.273438 8.4375 0 15.273437-6.835938 15.273437-15.273438v-37.992187c1.296875.039063 2.636719.0625 4.027344.0625 16.085937 0 38.078125-2.902344 56.511719-15.773437 32.867187-22.941407 39.890625-67.40625 40.175781-69.289063 1.207031-8.027344-4.078125-15.597656-12.03125-17.230469-1.863281-.382812-46.027344-9.117187-78.890625 13.828125-3.558594 2.484375-6.816406 5.21875-9.792969 8.128907v-49.664063c4.730469-5.746094 12.609375-16.277344 19.457031-29.992187 19.265626 12.730468 36.960938 18.046874 37.914063 18.328124 4.007813 1.179688 8.328125.664063 11.949219-1.425781 3.621094-2.089843 6.226562-5.574219 7.207031-9.636719.234375-.964843 4.480469-18.945312 3.085937-41.996093 23.046876 1.390625 41.03125-2.851563 41.992188-3.085938 4.066406-.980469 7.550781-3.585937 9.640625-7.207031s2.605469-7.941406 1.421875-11.953125c-.277344-.949219-5.59375-18.644531-18.324219-37.910156 20.65625-10.316407 34.109375-22.984375 34.828125-23.667969 3.027344-2.886719 4.742188-6.882812 4.742188-11.0625zm-227.519532 248.789062c-12.019531-8.390624-19.089843-22.117187-23.035156-32.871093 11.476563 0 26.828125 1.90625 38.8125 10.269531 12.023438 8.394531 19.09375 22.117188 23.039063 32.875-11.480469-.003906-26.832031-1.910156-38.816407-10.273438zm100.882813-22.601562c12.011719-8.382812 27.308594-10.292969 38.761719-10.292969h.039062c-3.960937 10.773438-11.039062 24.527344-23.023437 32.894531-12.007813 8.382813-27.308594 10.292969-38.761719 10.292969-.011719 0-.023438 0-.035156 0 3.957031-10.773437 11.035156-24.527343 23.019531-32.894531zm51.476563-187.675781c7.816406 8.566406 13.570312 18.046875 17.542968 25.902343-8.789062.484376-19.878906.242188-31.203125-2.242187-5.09375-1.117187-10.394531.433594-14.074219 4.117187-3.683593 3.683594-5.234374 8.988282-4.117187 14.074219 2.484375 11.324219 2.726563 22.414063 2.238281 31.203125-7.855468-3.972656-17.335937-9.726562-25.902344-17.542968-3.847656-3.507813-9.21875-4.816407-14.246093-3.46875-5.03125 1.347656-9.027344 5.167968-10.601563 10.128906-3.511718 11.046875-8.84375 20.769531-13.65625 28.132812-4.824218-7.378906-10.164062-17.109375-13.667968-28.132812-1.574219-4.960938-5.574219-8.78125-10.601563-10.128906-1.308594-.347657-2.632813-.519532-3.953125-.519532-3.761719 0-7.445312 1.390625-10.292969 3.988282-8.566406 7.816406-18.050781 13.574218-25.902343 17.542968-.488282-8.789062-.246094-19.878906 2.238281-31.203125 1.117187-5.085937-.4375-10.390625-4.117188-14.074219-3.683593-3.679687-8.988281-5.234374-14.074219-4.117187-11.328124 2.484375-22.414062 2.726563-31.203124 2.242187 3.972656-7.859374 9.730468-17.339843 17.542968-25.902343 3.507813-3.847657 4.816406-9.21875 3.46875-14.25-1.347656-5.027344-5.164062-9.027344-10.128906-10.601563-11.046875-3.511718-20.765625-8.839844-28.132812-13.65625 7.378906-4.824218 17.113281-10.164062 28.132812-13.667968 4.964844-1.574219 8.78125-5.570313 10.128906-10.601563s.039063-10.398437-3.46875-14.246094c-7.816406-8.566406-13.570312-18.050781-17.542968-25.902343 8.789062-.488282 19.878906-.242188 31.203124 2.238281 5.085938 1.117187 10.390626-.4375 14.074219-4.117188 3.679688-3.683593 5.234375-8.988281 4.117188-14.074219-2.480469-11.320312-2.726563-22.40625-2.242188-31.191406 7.867188 3.976563 17.359375 9.734375 25.90625 17.53125 3.84375 3.507813 9.214844 4.816406 14.246094 3.46875 5.027344-1.347656 9.027344-5.164062 10.601563-10.128906 3.511718-11.046875 8.839843-20.769531 13.65625-28.132812 4.820312 7.378906 10.164062 17.109374 13.667968 28.132812 1.574219 4.964844 5.570313 8.78125 10.601563 10.128906s10.402343.039063 14.246093-3.46875c8.5625-7.8125 18.042969-13.566406 25.894532-17.539062.488281 8.804687.246094 19.902344-2.230469 31.199218-1.117187 5.085938.4375 10.390626 4.117187 14.074219 3.683594 3.683594 8.988282 5.234375 14.074219 4.117188 11.320313-2.484375 22.402344-2.730469 31.191407-2.242188-3.976563 7.867188-9.734376 17.359375-17.53125 25.90625-3.507813 3.84375-4.816407 9.214844-3.46875 14.246094 1.347656 5.03125 5.164062 9.027344 10.128906 10.601563 11.046875 3.511718 20.773437 8.84375 28.144531 13.664062-7.371094 4.816406-17.097656 10.148438-28.144531 13.660156-4.964844 1.578125-8.78125 5.574219-10.128906 10.605469-1.351563 5.027344-.042969 10.398437 3.46875 14.246094zm0 0"/><path d="m169.183594 93.183594c-41.90625 0-76 34.09375-76 76.003906 0 41.90625 34.09375 76 76 76 41.910156 0 76-34.09375 76-76 0-41.910156-34.09375-76.003906-76-76.003906zm0 121.453125c-25.0625 0-45.453125-20.390625-45.453125-45.453125s20.390625-45.453125 45.453125-45.453125c25.066406 0 45.453125 20.390625 45.453125 45.453125s-20.390625 45.453125-45.453125 45.453125zm0 0"/></svg>