<svg height="512pt" viewBox="-16 0 512 512" width="512pt" xmlns="http://www.w3.org/2000/svg"><path d="m192.429688 0c-8.375 0-15.164063 6.789062-15.164063 15.164062v53.753907l-58.304687 42.367187v-96.121094c0-8.375-6.789063-15.164062-15.164063-15.164062s-15.164063 6.789062-15.164063 15.164062v96.121094l-58.300781-42.367187v-53.753907c0-8.375-6.792969-15.164062-15.167969-15.164062s-15.164062 6.789062-15.164062 15.164062v320.632813c0 4.851563 2.324219 9.414063 6.25 12.265625l82.382812 59.867188v88.90625c0 8.375 6.789063 15.164062 15.164063 15.164062s15.164063-6.789062 15.164063-15.164062v-88.902344l82.382812-59.871094c3.929688-2.851562 6.25-7.414062 6.25-12.265625v-320.632813c0-8.375-6.789062-15.164062-15.164062-15.164062zm-15.164063 241.664062-58.300781 42.367188v-48.847656l58.300781-42.367188zm-88.632813-44.007812-58.300781-42.367188v-48.878906l58.300781 42.367188zm-58.300781-4.839844 58.300781 42.367188v48.847656l-58.300781-42.367188zm146.933594-37.527344-58.300781 42.367188v-48.878906l58.300781-42.367188zm-146.933594 123.902344 58.300781 42.367188v48.878906l-58.300781-42.367188zm88.632813 91.246094v-48.878906l58.300781-42.367188v48.878906zm0 0"/><path d="m464.175781 0c-8.375 0-15.167969 6.789062-15.167969 15.164062v53.753907l-58.300781 42.367187v-96.121094c0-8.375-6.792969-15.164062-15.167969-15.164062s-15.164062 6.789062-15.164062 15.164062v96.121094l-58.300781-42.367187v-53.753907c0-8.375-6.789063-15.164062-15.164063-15.164062s-15.164062 6.789062-15.164062 15.164062v320.632813c0 4.851563 2.320312 9.414063 6.25 12.265625l82.378906 59.867188v88.90625c0 8.375 6.789062 15.164062 15.164062 15.164062s15.167969-6.789062 15.167969-15.164062v-88.902344l82.382813-59.871094c3.925781-2.851562 6.25-7.414062 6.25-12.265625v-320.632813c0-8.375-6.789063-15.164062-15.164063-15.164062zm-15.167969 241.664062-58.300781 42.367188v-48.847656l58.300781-42.367188zm-88.632812-44.007812-58.300781-42.367188v-48.878906l58.300781 42.367188zm-58.300781-4.839844 58.300781 42.367188v48.847656l-58.300781-42.367188zm146.933593-37.527344-58.300781 42.367188v-48.878906l58.300781-42.367188zm-146.933593 123.902344 58.300781 42.367188v48.878906l-58.300781-42.367188zm88.632812 91.246094v-48.878906l58.300781-42.367188v48.878906zm0 0"/></svg>