<svg height="512pt" viewBox="0 -24 512 512" width="512pt" xmlns="http://www.w3.org/2000/svg"><path d="m496.882812 106.304688h-2.542968c-46.367188 0-91.378906-20.238282-123.492188-55.523438-29.375-32.273438-71.234375-50.78125-114.847656-50.78125s-85.472656 18.507812-114.847656 50.78125c-32.113282 35.285156-77.125 55.523438-123.492188 55.523438h-2.542968c-8.347657 0-15.117188 6.769531-15.117188 15.117187 0 8.351563 6.769531 15.117187 15.117188 15.117187h2.542968c13.375 0 26.648438-1.425781 39.628906-4.171874v315.730468c0 8.347656 6.765626 15.117188 15.117188 15.117188h367.1875c8.347656 0 15.117188-6.769532 15.117188-15.117188v-315.730468c12.976562 2.746093 26.25 4.171874 39.628906 4.171874h2.542968c8.347657 0 15.117188-6.765624 15.117188-15.117187 0-8.347656-6.769531-15.117187-15.117188-15.117187zm-260.730468 254.46875-39.316406 46.21875v-92.4375zm19.847656 23.332031 41.570312 48.875h-83.144531zm19.847656-23.332031 39.316406-46.21875v92.4375zm-19.847656-23.332032-41.570312-48.871094h83.144531zm168.476562 95.539063h-79.078124v-159.527344c0-8.351563-6.769532-15.121094-15.117188-15.121094h-148.5625c-8.347656 0-15.117188 6.769531-15.117188 15.121094v159.527344h-79.078124v-309.609375c28.566406-11.074219 54.707031-28.847656 75.992187-52.238282 23.65625-25.988281 57.363281-40.898437 92.484375-40.898437s68.828125 14.910156 92.484375 40.898437c21.285156 23.390626 47.425781 41.164063 75.992187 52.238282zm0 0"/><path d="m256 83.144531c-34.738281 0-63 28.261719-63 63s28.261719 63 63 63 63-28.261719 63-63-28.261719-63-63-63zm0 95.765625c-18.066406 0-32.765625-14.699218-32.765625-32.765625 0-18.066406 14.699219-32.761719 32.765625-32.761719s32.765625 14.695313 32.765625 32.761719c0 18.066407-14.699219 32.765625-32.765625 32.765625zm0 0"/></svg>