<svg height="512pt" viewBox="-133 0 512 512" width="512pt" xmlns="http://www.w3.org/2000/svg"><path d="m174.703125 92.320312v-18.605468c17.769531-2.730469 31.425781-18.121094 31.425781-36.644532 0-20.441406-16.632812-37.070312-37.074218-37.070312h-92.179688c-20.4375 0-37.070312 16.628906-37.070312 37.070312 0 18.523438 13.65625 33.914063 31.425781 36.644532v18.605468c-44.746094 34.589844-71.230469 88.234376-71.230469 145.070313v221.824219c0 29.105468 23.679688 52.785156 52.785156 52.785156h140.363282c29.105468 0 52.785156-23.679688 52.785156-52.785156v-221.824219c0-56.835937-26.484375-110.480469-71.230469-145.070313zm-97.828125-62.171874h92.179688c3.820312 0 6.925781 3.105468 6.925781 6.921874 0 3.816407-3.105469 6.925782-6.925781 6.925782h-92.179688c-3.816406 0-6.921875-3.109375-6.921875-6.925782 0-3.816406 3.105469-6.921874 6.921875-6.921874zm138.910156 429.066406c0 12.484375-10.152344 22.636718-22.636718 22.636718h-140.363282c-12.484375 0-22.636718-10.152343-22.636718-22.636718v-221.824219c0-49.707031 24.242187-96.492187 64.847656-125.15625 4-2.824219 6.382812-7.414063 6.382812-12.3125v-25.78125h43.179688v25.78125c0 4.898437 2.378906 9.488281 6.378906 12.3125 40.605469 28.664063 64.851562 75.449219 64.851562 125.15625v221.824219zm0 0"/><path d="m153.691406 155.722656h-61.449218c-5.152344 0-9.945313 2.632813-12.710938 6.976563-13.222656 20.742187-20.207031 44.675781-20.207031 69.207031v206.0625c0 8.324219 6.746093 15.074219 15.070312 15.074219h97.144531c8.324219 0 15.070313-6.75 15.070313-15.074219v-206.0625c0-24.53125-6.984375-48.464844-20.203125-69.207031-2.769531-4.34375-7.5625-6.976563-12.714844-6.976563zm2.773438 267.171875h-66.996094v-190.988281c0-16.09375 3.929688-31.851562 11.425781-46.035156h44.140625c7.496094 14.183594 11.429688 29.941406 11.429688 46.035156zm0 0"/></svg>