<svg height="512pt" viewBox="-10 0 512 512" width="512pt" xmlns="http://www.w3.org/2000/svg"><path d="m491.585938 411.667969c0-97.394531-78.316407-176.6875-175.707032-176.6875h-81.980468v-219.980469c0-8.285156-6.714844-15-15-15h-203.898438c-8.285156 0-15 6.714844-15 15v449.007812c0 26.460938 21.53125 47.992188 47.992188 47.992188 12.769531 0 24.390624-5.011719 32.996093-13.171875 8.605469 8.160156 20.226563 13.171875 32.992188 13.171875 12.769531 0 24.386719-5.011719 32.996093-13.171875 8.605469 8.160156 20.226563 13.171875 32.992188 13.171875 12.769531 0 24.386719-5.011719 32.996094-13.171875 8.605468 8.160156 20.222656 13.171875 32.992187 13.171875s24.386719-5.011719 32.992188-13.171875c8.609375 8.160156 20.226562 13.171875 32.996093 13.171875 12.769532 0 24.386719-5.011719 32.992188-13.171875 8.609375 8.160156 20.226562 13.171875 32.996094 13.171875 12.765625 0 24.382812-5.011719 32.992187-13.171875 8.605469 8.160156 20.226563 13.171875 32.992188 13.171875 26.464843 0 47.996093-21.53125 47.996093-47.992188 0 0-.328124-50.90625-.328124-52.339843zm-461.585938-94.292969h8.796875c46.855469 0 85.832031 34.378906 93.039063 79.234375h-101.835938zm285.875-52.394531c75.789062 0 138.332031 57.796875 145.867188 131.628906h-299.617188c-7.429688-61.457031-59.902344-109.234375-123.328125-109.234375h-8.796875v-167.859375h173.898438v130.464844c0 8.285156 6.71875 15 15 15zm-285.875-234.980469h173.898438v59.515625h-173.898438zm431.914062 434.007812c0 9.921876-8.070312 17.992188-17.992187 17.992188-9.925781 0-17.996094-8.070312-17.996094-17.992188 0-8.285156-6.714843-15-15-15-8.285156 0-15 6.714844-15 15 0 9.921876-8.070312 17.992188-17.992187 17.992188s-17.996094-8.070312-17.996094-17.992188c0-8.285156-6.714844-15-15-15-8.28125 0-15 6.714844-15 15 0 9.921876-8.070312 17.992188-17.992188 17.992188-9.921874 0-17.992187-8.070312-17.992187-17.992188 0-8.285156-6.71875-15-15-15-8.285156 0-15 6.714844-15 15 0 9.921876-8.074219 17.992188-17.996094 17.992188s-17.992187-8.070312-17.992187-17.992188c0-8.285156-6.71875-15-15-15-8.285156 0-15 6.714844-15 15 0 9.921876-8.074219 17.992188-17.996094 17.992188s-17.992188-8.070312-17.992188-17.992188c0-8.285156-6.714843-15-15-15-8.285156 0-15 6.714844-15 15 0 9.921876-8.074218 17.992188-17.996093 17.992188s-17.992188-8.070312-17.992188-17.992188c0-8.285156-6.714843-15-15-15-8.285156 0-15 6.714844-15 15 0 9.921876-8.074219 17.992188-17.996093 17.992188-9.921876 0-17.992188-8.070312-17.992188-17.992188v-37.398437h431.914062zm0 0"/></svg>