<svg height="512pt" viewBox="-41 0 512 512" width="512pt" xmlns="http://www.w3.org/2000/svg"><path d="m428.273438 101.734375-33.128907-91.648437c-2.1875-6.054688-7.933593-10.085938-14.367187-10.085938h-289.308594c-6.433594 0-12.179688 4.03125-14.367188 10.085938l-33.125 91.648437c-1.695312 4.683594-1 9.898437 1.863282 13.972656 2.859375 4.074219 7.527344 6.5 12.503906 6.5h40.09375v53.363281h-40.09375c-8.4375 0-15.277344 6.839844-15.277344 15.28125v33.304688h-27.789062c-8.4375 0-15.277344 6.84375-15.277344 15.28125s6.839844 15.277344 15.277344 15.277344h43.066406c8.4375 0 15.277344-6.839844 15.277344-15.277344v-33.308594h24.816406v66.613282h-13.59375c-8.4375 0-15.277344 6.84375-15.277344 15.28125v67.355468c0 8.4375 6.839844 15.28125 15.277344 15.28125h13.59375v126.0625c0 8.4375 6.839844 15.277344 15.277344 15.277344h244.816406c8.4375 0 15.277344-6.839844 15.277344-15.277344v-126.0625h13.59375c8.4375 0 15.277344-6.84375 15.277344-15.28125v-67.355468c0-8.4375-6.839844-15.28125-15.277344-15.28125h-13.59375v-150.535157h40.09375c4.980468 0 9.644531-2.425781 12.503906-6.5 2.863281-4.074219 3.558594-9.289062 1.867188-13.972656zm-299.28125 104.394531h24.21875v66.617188h-24.21875zm243.132812 97.171875v36.800781h-272v-36.800781zm-28.871094 178.140625h-214.261718v-110.78125h214.261718zm-159.484375-208.699218v-66.613282h14.53125v6.070313c0 8.4375 6.839844 15.277343 15.277344 15.277343s15.28125-6.839843 15.28125-15.277343v-6.070313h14.53125v6.070313c0 8.4375 6.839844 15.277343 15.277344 15.277343s15.28125-6.839843 15.28125-15.277343v-6.070313h14.53125v6.070313c0 8.4375 6.839843 15.277343 15.277343 15.277343s15.28125-6.839843 15.28125-15.277343v-6.070313h24.214844v66.613282zm159.484375-97.167969h-24.21875v-6.070313c0-8.4375-6.839844-15.28125-15.277344-15.28125s-15.277343 6.84375-15.277343 15.28125v6.070313h-14.535157v-6.070313c0-8.4375-6.839843-15.28125-15.277343-15.28125s-15.277344 6.84375-15.277344 15.28125v6.070313h-14.535156v-6.070313c0-8.4375-6.839844-15.28125-15.277344-15.28125s-15.277344 6.84375-15.277344 15.28125v6.070313h-14.53125v-6.070313c0-8.4375-6.84375-15.28125-15.28125-15.28125s-15.277343 6.84375-15.277343 15.28125v6.070313h-24.21875v-53.367188h214.261718zm-263.144531-83.921875 22.085937-61.09375h267.859376l22.082031 61.09375zm0 0"/></svg>