<svg height="511pt" viewBox="0 1 511 511.99848" width="511pt" xmlns="http://www.w3.org/2000/svg"><path d="m507.75 79.15625-74.71875-74.71875c-5.917969-5.917969-15.515625-5.917969-21.433594 0l-28.980468 28.980469c-22.820313 22.824219-25.976563 57.964843-9.496094 84.214843l-220.203125 220.207032-46.988281-46.988282c-5.917969-5.917968-15.515626-5.917968-21.433594 0l-55.242188 55.242188c-37.847656 37.847656-38.40625 99.328125-1.242187 137.046875 18.242187 18.511719 42.59375 28.761719 68.574219 28.859375h.371093c24.824219 0 48.210938-9.28125 66.21875-26.21875l.035157.035156 58.125-58.128906c5.917968-5.917969 5.917968-15.511719 0-21.429688l-46.988282-46.988281 220.207032-220.207031c11.007812 6.910156 23.570312 10.382812 36.140624 10.382812 16.796876 0 33.59375-6.167968 46.660157-18.503906l.019531.023438 30.375-30.375c5.917969-5.921875 5.917969-15.515625 0-21.433594zm-405.417969 330.699219c2.957031 2.960937 6.835938 4.441406 10.714844 4.441406s7.757813-1.480469 10.714844-4.441406l29.152343-29.152344 36.273438 36.273437-45.253906 45.25c-12.558594 12.558594-29.234375 19.464844-46.984375 19.464844-.082031 0-.167969 0-.253907 0-17.839843-.066406-34.566406-7.105468-47.09375-19.820312-25.519531-25.902344-25.035156-68.222656 1.082032-94.34375l44.53125-44.527344 36.269531 36.269531-29.152344 29.152344c-5.917969 5.921875-5.917969 15.515625 0 21.433594zm301.722657-301.71875c-14.691407-14.691407-14.691407-38.597657 0-53.285157l18.261718-18.265624 53.285156 53.285156-18.261718 18.265625c-14.691406 14.6875-38.597656 14.6875-53.285156 0zm0 0"/></svg>