<svg height="512pt" viewBox="0 0 512 512.00301" width="512pt" xmlns="http://www.w3.org/2000/svg"><path d="m507.585938 78.328125-73.917969-73.917969c-2.824219-2.824218-6.652344-4.410156-10.648438-4.410156-3.992187 0-7.824219 1.585938-10.644531 4.410156l-40.515625 40.515625c-13.824219 13.824219-16.914063 34.375-9.28125 51.214844l-178.125 178.125-14.160156-14.164063c-7.523438-7.519531-17.523438-11.664062-28.160157-11.664062-10.636718 0-20.640624 4.144531-28.160156 11.664062l-109.558594 109.5625c-5.882812 5.882813-5.882812 15.414063 0 21.296876 5.878907 5.878906 15.414063 5.878906 21.292969 0l84.441407-84.441407 17.445312 17.449219-84.441406 84.4375c-5.878906 5.882812-5.878906 15.417969 0 21.296875 5.882812 5.882813 15.417968 5.882813 21.296875 0l84.441406-84.4375 17.847656 17.847656-84.4375 84.441407c-5.882812 5.878906-5.882812 15.414062 0 21.296874 2.9375 2.9375 6.792969 4.410157 10.644531 4.410157 3.855469 0 7.710938-1.46875 10.648438-4.410157l84.441406-84.441406 17.445313 17.445313-84.441407 84.441406c-5.878906 5.878906-5.878906 15.414063 0 21.296875 2.941407 2.9375 6.796876 4.410156 10.648438 4.410156 3.855469 0 7.707031-1.46875 10.648438-4.410156l109.5625-109.5625c15.527343-15.527344 15.527343-40.792969 0-56.320312l-14.164063-14.160157 178.125-178.128906c5.988281 2.714844 12.445313 4.078125 18.902344 4.078125 11.699219 0 23.402343-4.453125 32.308593-13.359375l40.511719-40.515625c5.882813-5.882812 5.882813-15.417969.003907-21.296875zm-31.945313 10.648437-7.898437 7.898438-52.621094-52.621094 7.898437-7.898437zm-340.371094 192.421876c1.832031-1.832032 4.269531-2.84375 6.863281-2.84375s5.03125 1.011718 6.863282 2.84375l81.605468 81.605468c3.785157 3.785156 3.785157 9.941406 0 13.726563l-3.824218 3.828125-95.332032-95.335938zm70.480469 14.164062 176.066406-176.066406 10.6875 10.6875-176.0625 176.066406zm218.007812-176.71875-30.605468-30.605469c-6.066406-6.070312-6.066406-15.949219.003906-22.015625l.667969-.671875 52.621093 52.621094-.667968.667969c-6.074219 6.074218-15.949219 6.070312-22.019532.003906zm0 0"/></svg>