<svg height="512pt" viewBox="0 -164 512 512" width="512pt" xmlns="http://www.w3.org/2000/svg"><path d="m496.578125 152.648438h-73.222656c-7.8125-85.472657-79.878907-152.648438-167.355469-152.648438s-159.542969 67.175781-167.355469 152.648438h-73.222656c-8.515625 0-15.421875 6.90625-15.421875 15.421874 0 8.515626 6.90625 15.421876 15.421875 15.421876h481.15625c8.515625 0 15.421875-6.90625 15.421875-15.421876 0-8.515624-6.90625-15.421874-15.421875-15.421874zm-240.578125-121.804688c70.453125 0 128.667969 53.371094 136.355469 121.804688h-272.710938c7.6875-68.433594 65.902344-121.804688 136.355469-121.804688zm0 0"/><path d="m340.3125 86.082031c-.375-8.355469-6.777344-15.417969-15.421875-15.417969-8.066406 0-15.792969 7.089844-15.421875 15.417969.375 8.355469 6.777344 15.421875 15.421875 15.421875 8.066406 0 15.796875-7.089844 15.421875-15.421875zm0 0"/><path d="m349.320312 109.5c-8.066406 0-15.792968 7.09375-15.421874 15.421875.375 8.355469 6.777343 15.421875 15.421874 15.421875 8.066407 0 15.796876-7.09375 15.421876-15.421875-.375-8.355469-6.777344-15.421875-15.421876-15.421875zm0 0"/><path d="m300.460938 109.5c-8.066407 0-15.796876 7.09375-15.421876 15.421875.375 8.355469 6.777344 15.421875 15.421876 15.421875 8.066406 0 15.792968-7.09375 15.421874-15.421875-.375-8.355469-6.777343-15.421875-15.421874-15.421875zm0 0"/></svg>