<svg height="512pt" viewBox="-49 0 512 512.00057" width="512pt" xmlns="http://www.w3.org/2000/svg"><path d="m410.523438 141.175781-39.699219-39.699219c-5.933594-5.933593-15.554688-5.933593-21.488281 0l-22.257813 22.257813-100.984375-118.398437c-2.75-3.226563-6.726562-5.15625-10.960938-5.3242192-4.230468-.1679688-8.347656 1.4414062-11.347656 4.4375002l-108.058594 108.0625c-3 3-4.609374 7.113281-4.441406 11.347656.167969 4.234375 2.097656 8.210937 5.324219 10.960937l118.398437 100.984376-202.355468 202.359374c-16.871094 16.867188-16.871094 44.316407 0 61.183594 8.433594 8.4375 19.511718 12.652344 30.59375 12.652344 11.078125 0 22.15625-4.214844 30.589844-12.652344l207.214843-207.210937 15.503907 13.222656c2.851562 2.433594 6.359374 3.632813 9.859374 3.632813 3.902344 0 7.792969-1.496094 10.746094-4.449219l78.65625-78.65625c5.605469-5.605469 5.960938-14.578125.816406-20.605469l-13.222656-15.507812 27.113282-27.109376c5.933593-5.933593 5.933593-15.554687 0-21.488281zm-46.121094 73.148438-58.804688 58.804687-138.167968-117.847656 79.125-79.125zm-330.261719 263.535156c-5.019531-5.019531-5.019531-13.1875 0-18.207031l204.0625-204.0625 19.652344 16.761718-205.507813 205.507813c-5.019531 5.019531-13.1875 5.019531-18.207031 0zm179.503906-440.289063 13.125 15.390626-82.535156 82.535156-15.390625-13.125zm133.21875 109.359376 13.21875-13.21875 18.207031 18.207031-14.664062 14.664062zm0 0"/></svg>