<svg height="512pt" viewBox="0 0 512 512" width="512pt" xmlns="http://www.w3.org/2000/svg"><path d="m437.019531 74.980469c-48.351562-48.351563-112.636719-74.980469-181.019531-74.980469-68.378906 0-132.667969 26.628906-181.019531 74.980469-48.351563 48.351562-74.980469 112.640625-74.980469 181.019531s26.628906 132.667969 74.980469 181.019531c48.351562 48.351563 112.640625 74.980469 181.019531 74.980469 68.382812 0 132.667969-26.628906 181.019531-74.980469 48.351563-48.351562 74.980469-112.640625 74.980469-181.019531 0-68.382812-26.628906-132.667969-74.980469-181.019531zm-181.019531 406.460937c-124.308594 0-225.441406-101.132812-225.441406-225.441406s101.132812-225.441406 225.441406-225.441406 225.441406 101.132812 225.441406 225.441406-101.132812 225.441406-225.441406 225.441406zm0 0"/><path d="m256 55.554688c-110.527344 0-200.445312 89.917968-200.445312 200.445312 0 110.523438 89.921874 200.445312 200.445312 200.445312 110.527344 0 200.449219-89.921874 200.449219-200.445312 0-110.527344-89.921875-200.445312-200.449219-200.445312zm-169.890625 200.445312c0-7.644531.519531-15.164062 1.5-22.542969h39.652344v45.085938h-39.652344c-.980469-7.378907-1.5-14.902344-1.5-22.542969zm339.78125 0c0 7.640625-.515625 15.164062-1.5 22.542969h-39.644531v-45.085938h39.644531c.984375 7.378907 1.5 14.902344 1.5 22.542969zm-31.320313 98.183594h-9.824218v-45.082032h32.636718c-5.359374 16.238282-13.09375 31.410157-22.8125 45.082032zm-85.46875 63.195312v-32.636718h45.085938v9.828124c-13.671875 9.714844-28.84375 17.453126-45.085938 22.808594zm-214.484374-108.28125h32.644531v45.085938h-9.832031c-9.714844-13.671875-17.453126-28.84375-22.8125-45.085938zm63.203124 75.644532h45.085938v32.640624c-16.242188-5.359374-31.414062-13.09375-45.085938-22.808593zm0-30.558594v-45.082032h45.085938v45.082032zm-40.390624-196.367188h9.832031v45.082032h-32.644531c5.359374-16.238282 13.097656-31.410157 22.8125-45.082032zm85.472656-63.199218v32.640624h-45.085938v-9.832031c13.675782-9.714843 28.84375-17.449219 45.085938-22.808593zm-45.082032 63.199218h45.085938v45.082032h-45.085938zm196.367188-30.558594h-45.085938v-32.636718c16.242188 5.355468 31.414063 13.09375 45.085938 22.808594zm0 30.558594v45.082032h-45.085938v-45.082032zm-45.085938 75.640625h45.085938v45.085938h-45.085938zm-30.554687 45.085938h-45.085937v-45.085938h45.085937zm0-75.640625h-45.085937v-45.085938h45.085937zm-75.644531 30.554687v45.085938h-45.085938v-45.085938zm30.558594 75.640625h45.085937v45.085938h-45.085937zm75.640624 0h45.085938v45.085938h-45.085938zm75.644532-106.195312v-45.085938h9.824218c9.71875 13.671875 17.453126 28.84375 22.8125 45.085938zm-106.199219-75.644532h-45.085937v-39.648437c7.378906-.980469 14.898437-1.5 22.539062-1.5 7.644531 0 15.167969.519531 22.546875 1.5zm-45.085937 257.484376h45.085937v39.648437c-7.378906.984375-14.902344 1.5-22.546875 1.5-7.640625 0-15.164062-.515625-22.539062-1.5zm0 0"/></svg>