<svg height="512pt" viewBox="-60 0 512 512.00102" width="512pt" xmlns="http://www.w3.org/2000/svg"><path d="m374.546875 118.265625c-10.71875-42.265625-26.011719-79.621094-45.449219-111.027344-2.785156-4.5-7.699218-7.238281-12.992187-7.238281h-241.074219c-5.292969 0-10.207031 2.738281-12.992188 7.238281-19.4375 31.402344-34.730468 68.761719-45.449218 111.027344-11.007813 43.410156-16.589844 89.75-16.589844 137.734375s5.582031 94.324219 16.589844 137.734375c10.71875 42.269531 26.011718 79.625 45.449218 111.03125 2.785157 4.496094 7.699219 7.234375 12.992188 7.234375h241.074219c5.292969 0 10.207031-2.738281 12.992187-7.234375 19.4375-31.40625 34.730469-68.761719 45.449219-111.03125 11.007813-43.410156 16.589844-89.75 16.589844-137.734375s-5.582031-94.324219-16.589844-137.734375zm-29.894531 268.789063h-64.722656c4.179687-41 6.414062-85.574219 6.414062-131.054688s-2.234375-90.050781-6.414062-131.054688h64.722656c10.371094 40.632813 15.925781 85.300782 15.925781 131.054688s-5.554687 90.425781-15.925781 131.054688zm-88.863282-131.054688c0 45.675781-2.285156 90.308594-6.554687 131.054688h-107.328125c-4.269531-40.746094-6.554688-85.378907-6.554688-131.054688s2.285157-90.308594 6.554688-131.054688h107.328125c4.265625 40.746094 6.554687 85.378907 6.554687 131.054688zm-10.234374-161.609375h-99.972657c3.164063-23.148437 7.011719-44.636719 11.488281-63.832031h76.996094c4.476563 19.195312 8.328125 40.683594 11.488282 63.832031zm-99.972657 323.222656h99.972657c-3.164063 23.144531-7.011719 44.632813-11.488282 63.828125h-76.996094c-4.476562-19.195312-8.324218-40.683594-11.488281-63.828125zm130.785157-323.222656c-3.027344-22.933594-6.707032-44.394531-10.976563-63.832031h42.050781c11.015625 19.0625 20.472656 40.566406 28.242188 63.832031zm-150.621094-63.832031c-4.269532 19.4375-7.945313 40.898437-10.976563 63.832031h-59.316406c7.769531-23.265625 17.230469-44.769531 28.242187-63.832031zm-79.261719 94.386718h64.722656c-4.179687 41.003907-6.414062 85.574219-6.414062 131.054688s2.234375 90.050781 6.414062 131.054688h-64.722656c-10.371094-40.628907-15.925781-85.300782-15.925781-131.054688s5.554687-90.421875 15.925781-131.054688zm68.289063 292.667969c3.027343 22.929688 6.703124 44.390625 10.972656 63.828125h-42.050782c-11.011718-19.058594-20.472656-40.566406-28.238281-63.828125zm150.617187 63.828125c4.269531-19.4375 7.949219-40.898437 10.976563-63.828125h59.316406c-7.769532 23.261719-17.230469 44.769531-28.242188 63.828125zm0 0"/></svg>