<svg height="511pt" viewBox="-46 1 511 511.99887" width="511pt" xmlns="http://www.w3.org/2000/svg"><path d="m296.199219 228.816406c-5.878907-5.882812-15.414063-5.878906-21.296875 0l-12.148438 12.148438-31.246094-31.25 31.246094-31.246094 12.148438 12.148438c2.824218 2.824218 6.65625 4.410156 10.648437 4.410156 3.992188 0 7.824219-1.585938 10.648438-4.410156l119.320312-119.324219c2.824219-2.824219 4.414063-6.65625 4.414063-10.648438 0-3.996093-1.585938-7.824219-4.414063-10.648437l-45.582031-45.585938c-5.878906-5.878906-15.414062-5.878906-21.296875 0l-119.324219 119.324219c-5.878906 5.878906-5.878906 15.414063 0 21.296875l12.140625 12.140625-31.246093 31.25-31.242188-31.242187 12.148438-12.148438c5.878906-5.882812 5.878906-15.417969 0-21.296875l-119.324219-119.324219c-5.882813-5.882812-15.417969-5.878906-21.296875 0l-45.585938 45.585938c-2.824218 2.824218-4.410156 6.652344-4.410156 10.648437 0 3.992188 1.585938 7.824219 4.410156 10.648438l119.324219 119.324219c2.824219 2.824218 6.652344 4.410156 10.648437 4.410156 3.992188 0 7.824219-1.585938 10.644532-4.410156l12.144531-12.144532 31.242187 31.242188-31.242187 31.242187-12.144531-12.140625c-5.878906-5.882812-15.414063-5.882812-21.292969 0l-119.324219 119.324219c-2.824218 2.824219-4.410156 6.652344-4.410156 10.648437 0 3.992188 1.585938 7.820313 4.410156 10.644532l45.585938 45.585937c2.941406 2.941407 6.792968 4.414063 10.648437 4.414063 3.851563 0 7.707031-1.472656 10.644531-4.414063l46.101563-46.101562v128.023437c0 8.316406 6.742187 15.058594 15.058594 15.058594h154.53125c8.316406 0 15.058593-6.742188 15.058593-15.058594v-128.019531l46.101563 46.101563c2.941406 2.9375 6.792969 4.410156 10.648437 4.410156 3.851563 0 7.707032-1.472656 10.644532-4.410156l45.585937-45.585938c2.824219-2.824219 4.410157-6.65625 4.410157-10.648438 0-3.992187-1.585938-7.824218-4.410157-10.648437zm-10.648438-70.144531-24.289062-24.289063 98.027343-98.027343 24.289063 24.289062zm-248.695312-98.027344 24.289062-24.289062 98.027344 98.027343-24.289063 24.289063zm224.40625 224.40625 24.289062-24.289062 98.027344 98.027343-24.289063 24.289063zm-51.050781-54.039062 31.246093 31.25-12.140625 12.140625c-2.824218 2.824218-4.410156 6.652344-4.410156 10.648437 0 3.992188 1.585938 7.824219 4.410156 10.648438l43.105469 43.105469v143.078124h-21.953125v-52.6875c0-22.195312-18.054688-40.253906-40.253906-40.253906-22.195313 0-40.253906 18.058594-40.253906 40.253906v52.6875h-21.949219v-143.078124l43.105469-43.105469c2.824218-2.824219 4.410156-6.65625 4.410156-10.648438 0-3.996093-1.585938-7.824219-4.410156-10.648437l-12.148438-12.148438zm10.140624 250.871093h-20.269531v-52.6875c0-5.589843 4.546875-10.136718 10.136719-10.136718s10.136719 4.546875 10.136719 10.136718v52.6875zm-85.46875-221.121093 24.289063 24.289062-98.027344 98.027344-24.289062-24.289063zm0 0"/><path d="m210.214844 357.566406c7.878906 0 15.425781-6.925781 15.058594-15.058594-.167969-3.773437-1.605469-7.265624-3.925782-9.941406-2.699218-3.113281-6.59375-5.117187-11.132812-5.117187-4.226563 0-8.351563 2.007812-11.214844 5.117187-2.472656 2.679688-4.011719 6.175782-3.84375 9.941406.367188 8.160157 6.617188 15.058594 15.058594 15.058594zm0 0"/></svg>