<svg height="512pt" viewBox="-102 0 512 512" width="512pt" xmlns="http://www.w3.org/2000/svg"><path d="m257.667969 441.125c-24.28125-10.253906-55.257813-16.503906-88.480469-17.980469v-106.265625l47.855469-38.308594c1.3125.089844 2.625.140626 3.941406.140626 14.976563-.003907 29.851563-5.804688 41.171875-17.128907 15.425781-15.421875 20.609375-37.4375 14.828125-57.328125 18.152344-9.976562 30.050781-29.207031 30.050781-51.023437 0-21.8125-11.898437-41.042969-30.050781-51.019531 5.777344-19.894532.597656-41.90625-14.828125-57.332032-15.421875-15.421875-37.4375-20.609375-57.328125-14.824218-9.980469-18.15625-29.210937-30.054688-51.023437-30.054688s-41.042969 11.898438-51.023438 30.054688c-19.890625-5.777344-41.90625-.597657-57.328125 14.828124-15.425781 15.421876-20.609375 37.4375-14.828125 57.328126-18.152344 9.976562-30.054688 29.207031-30.054688 51.023437 0 21.8125 11.902344 41.042969 30.054688 51.019531-5.78125 19.894532-.597656 41.90625 14.828125 57.332032 12.3125 12.3125 28.824219 18.085937 45.101563 16.976562l47.871093 38.320312v106.261719c-33.226562 1.476563-64.203125 7.726563-88.484375 17.980469-32.207031 13.597656-49.941406 33.304688-49.941406 55.496094 0 8.492187 6.886719 15.378906 15.378906 15.378906h276.847656c8.492188 0 15.378907-6.886719 15.378907-15.378906 0-22.191406-17.734375-41.898438-49.9375-55.496094zm-88.480469-189.332031c.640625.515625 1.261719 1.066406 1.863281 1.65625 4.753907 4.671875 9.160157 8.695312 13.148438 12.007812l-15.011719 12.019531zm-104.9375-47.339844c3.089844-4.320313 3.730469-9.925781 1.699219-14.832031-2.03125-4.902344-6.449219-8.414063-11.6875-9.285156-13.285157-2.210938-22.929688-13.609376-22.929688-27.105469 0-13.496094 9.644531-24.894531 22.929688-27.105469 5.238281-.871094 9.65625-4.378906 11.6875-9.285156s1.390625-10.511719-1.699219-14.832032c-7.832031-10.957031-6.589844-25.835937 2.953125-35.378906 9.542969-9.542968 24.421875-10.78125 35.378906-2.953125 4.320313 3.089844 9.929688 3.730469 14.832031 1.699219 4.902344-2.03125 8.414063-6.449219 9.285157-11.6875 2.210937-13.285156 13.609375-22.925781 27.105469-22.925781 13.496093 0 24.894531 9.640625 27.105468 22.929687.871094 5.234375 4.378906 9.652344 9.285156 11.683594s10.511719 1.390625 14.828126-1.695312c10.960937-7.832032 25.839843-6.59375 35.382812 2.953124 9.542969 9.542969 10.78125 24.421876 2.949219 35.378907-3.085938 4.320312-3.726563 9.925781-1.695313 14.828125 2.03125 4.90625 6.449219 8.417968 11.683594 9.289062 13.289062 2.207032 22.933594 13.605469 22.933594 27.105469 0 13.496094-9.644532 24.894531-22.933594 27.105469-5.234375.871094-9.652344 4.378906-11.683594 9.285156-2.03125 4.902344-1.390625 10.511719 1.695313 14.828125 7.832031 10.960937 6.59375 25.839844-2.949219 35.382813-9.460938 9.457031-24.164062 10.761718-35.089844 3.15625-3.652344-2.925782-7.925781-6.78125-12.707031-11.480469-22.101563-21.71875-57.828125-21.398438-79.636719.707031-4.484375 4.546875-8.246094 8.285156-11.199218 11.125-10.871094 7.207031-25.257813 5.800781-34.570313-3.507812-9.542969-9.546876-10.785156-24.425782-2.953125-35.382813zm59.019531 60.894531c3.125-3.011718 7.015625-6.878906 11.601563-11.527344 1.113281-1.125 2.304687-2.121093 3.554687-3v26.660157zm-82.203125 215.890625c5.25-4.140625 12.328125-8.183593 20.839844-11.777343 24.296875-10.257813 56.929688-15.90625 91.898438-15.90625 34.964843 0 67.601562 5.648437 91.898437 15.90625 8.507813 3.59375 15.589844 7.636718 20.839844 11.777343zm0 0"/><path d="m153.804688 126.246094c8.042968 0 15.75-7.074219 15.378906-15.378906-.371094-8.332032-6.757813-15.382813-15.378906-15.382813-8.046876 0-15.753907 7.074219-15.382813 15.382813.375 8.332031 6.761719 15.378906 15.382813 15.378906zm0 0"/><path d="m115.183594 176.707031c8.042968 0 15.75-7.074219 15.378906-15.378906-.375-8.332031-6.757812-15.378906-15.378906-15.378906-8.046875 0-15.753906 7.074219-15.382813 15.378906.375 8.335937 6.757813 15.378906 15.382813 15.378906zm0 0"/><path d="m192.425781 176.707031c8.046875 0 15.753907-7.074219 15.378907-15.378906-.371094-8.332031-6.757813-15.378906-15.378907-15.378906-8.042969 0-15.753906 7.074219-15.378906 15.378906.371094 8.335937 6.757813 15.378906 15.378906 15.378906zm0 0"/></svg>