<svg height="512pt" viewBox="-49 0 512 512" width="512pt" xmlns="http://www.w3.org/2000/svg"><path d="m199.351562 127.15625c-39.808593 0-72.195312 32.386719-72.195312 72.195312 0 39.808594 32.386719 72.195313 72.195312 72.195313 39.808594 0 72.195313-32.386719 72.195313-72.195313 0-39.808593-32.386719-72.195312-72.195313-72.195312zm0 114.15625c-23.136718 0-41.957031-18.824219-41.957031-41.960938 0-23.136718 18.820313-41.957031 41.957031-41.957031 23.136719 0 41.960938 18.820313 41.960938 41.957031 0 23.136719-18.824219 41.960938-41.960938 41.960938zm0 0"/><path d="m399.851562 459.960938h-1.148437v-21.527344h1.148437c8.347657 0 15.117188-6.769532 15.117188-15.121094 0-8.347656-6.769531-15.117188-15.117188-15.117188h-1.148437v-203.902343c0-.332031-.027344-.660157-.046875-.992188.023438-1.3125.046875-2.628906.046875-3.949219 0-109.921874-89.425781-199.351562-199.351563-199.351562-109.921874 0-199.351562 89.429688-199.351562 199.351562 0 1.652344.0234375 3.300782.0625 4.941407h-.0625v219.019531c0 .089844.0117188.179688.0117188.269531.0039062.234375.0234374.472657.0390624.710938.0195313.304687.0429688.605469.0781248.902343.011719.089844.011719.175782.023438.261719l10.535156 73.570313c1.066406 7.445312 7.445312 12.972656 14.96875 12.972656h42.503906c7.523438 0 13.898438-5.527344 14.964844-12.972656l10.539062-73.570313c.011719-.085937.011719-.171875.023438-.261719.035156-.296874.058594-.601562.078125-.90625.015625-.234374.03125-.472656.035156-.707031.003907-.089843.015625-.175781.015625-.269531v-54.910156c30.625 19.1875 66.804688 30.304687 105.535156 30.304687 38.734376 0 74.914063-11.117187 105.539063-30.304687v39.792968h-1.144531c-8.347656 0-15.117188 6.769532-15.117188 15.117188 0 8.351562 6.769532 15.121094 15.117188 15.121094h1.144531v21.527344h-1.144531c-8.347656 0-15.117188 6.765624-15.117188 15.117187 0 8.347656 6.769532 15.117187 15.117188 15.117187h96.105468c8.347657 0 15.117188-6.769531 15.117188-15.117187 0-8.351563-6.769531-15.117187-15.117188-15.117187zm-64.722656-114.785157c12.792969-11.921875 24.023438-25.5 33.339844-40.394531v103.414062h-33.339844zm0 93.257813h33.339844v21.527344h-33.339844zm-320.011718-234.140625h15.195312c-.046875-1.640625-.078125-3.289063-.078125-4.941407 0-93.25 75.867187-169.117187 169.117187-169.117187s169.117188 75.867187 169.117188 169.117187c0 93.253907-75.863281 169.117188-169.117188 169.117188-39.886718 0-76.589843-13.890625-105.539062-37.074219v-46.726562c24.914062 30.757812 62.964844 50.460937 105.539062 50.460937 74.867188 0 135.773438-60.910156 135.773438-135.777344 0-74.863281-60.90625-135.773437-135.773438-135.773437-74.863281 0-135.773437 60.910156-135.773437 135.773437 0 1.65625.039063 3.300782.097656 4.941407h15.019531-15.117187v203.902343h-33.34375v-203.902343zm184.234374 100.597656c-58.191406 0-105.539062-47.34375-105.539062-105.539063 0-58.191406 47.347656-105.535156 105.539062-105.535156 58.195313 0 105.539063 47.34375 105.539063 105.535156 0 58.195313-47.34375 105.539063-105.539063 105.539063zm-144.296874 176.875h-16.292969l-6.207031-43.332031h28.703124zm0 0"/></svg>