<svg height="512pt" viewBox="0 0 512.00152 512" width="512pt" xmlns="http://www.w3.org/2000/svg"><path d="m508.019531 5c-2.996093-3.292969-7.324219-5.113281-11.726562-4.9921875-1.734375.046875-43.089844 1.3320315-98.089844 15.9726565-50.996094 13.574219-123.769531 41.738281-180.859375 98.828125-4.054688 4.054687-5.496094 10.039062-3.734375 15.496094l35.757813 110.71875-68.769532 68.769531-21.519531-21.519531c-2.867187-2.867188-6.75-4.476563-10.804687-4.476563-4.050782 0-7.9375 1.609375-10.800782 4.476563l-119.609375 119.609374c-11.519531 11.515626-17.863281 26.832032-17.863281 43.121094 0 16.292969 6.34375 31.605469 17.863281 43.125 11.890625 11.890625 27.503907 17.835938 43.125 17.835938 15.613281 0 31.234375-5.945313 43.125-17.835938l119.609375-119.609375c5.964844-5.964843 5.964844-15.636719 0-21.605469l-21.519531-21.515624 68.769531-68.769532 110.183594 35.582032c1.6875.613281 3.460938.921874 5.238281.921874 3.910157 0 7.820313-1.492187 10.800781-4.476562 57.089844-57.089844 85.253907-129.859375 98.828126-180.855469 14.640624-55 15.925781-96.359375 15.972656-98.09375.105468-3.941406-1.324219-7.785156-3.976563-10.707031zm-425.515625 467.523438c-11.863281 11.863281-31.171875 11.863281-43.035156 0-11.863281-11.863282-11.863281-31.171876 0-43.035157l63.488281-63.488281 43.035157 43.039062zm85.09375-85.09375-43.035156-43.035157 23.710938-23.710937 21.511718 21.507812c.003906.003906.003906.007813.007813.007813.003906.003906.003906.007812.007812.007812l21.511719 21.511719zm196.160156-239.195313c-5.964843-5.964844-15.636718-5.964844-21.605468 0l-68.515625 68.515625-28.023438-86.78125c51.035157-47.800781 114.515625-72.152344 159.664063-84.253906 31.429687-8.421875 58.445312-12.203125 74.886718-13.878906-1.675781 16.445312-5.457031 43.457031-13.878906 74.886718-12.101562 45.144532-36.453125 108.625-84.246094 159.660156l-86.796874-28.027343 68.515624-68.515625c5.96875-5.964844 5.96875-15.640625 0-21.605469zm0 0"/></svg>