<svg height="512pt" viewBox="0 -14 512.001 512" width="512pt" xmlns="http://www.w3.org/2000/svg"><path d="m474.074219 198.625 9.789062-168.574219h13.113281c8.296876 0 15.023438-6.726562 15.023438-15.023437 0-8.300782-6.726562-15.027344-15.023438-15.027344h-481.953124c-8.296876 0-15.023438 6.726562-15.023438 15.027344 0 8.296875 6.726562 15.023437 15.023438 15.023437h13.113281l25.585937 440.609375c.460938 7.945313 7.039063 14.152344 15 14.152344h374.558594c7.957031 0 14.535156-6.207031 15-14.152344l10.6875-184.046875c23.835938-.640625 43.03125-20.21875 43.03125-44.207031 0-22.25-16.511719-40.707031-37.925781-43.78125zm-6.3125 57.96875h-32.679688c-7.824219 0-14.1875-6.363281-14.1875-14.1875 0-7.820312 6.363281-14.1875 14.1875-14.1875h32.679688c7.824219 0 14.1875 6.367188 14.1875 14.1875 0 7.824219-6.363281 14.1875-14.1875 14.1875zm-215.519531-119.15625h195.285156l-3.527344 60.730469h-8.921875c-18.261719 0-33.976563 11.128906-40.71875 26.957031-58.558594-8.605469-109.300781-41.507812-142.117187-87.6875zm197.03125-30.050781h-214.902344c-11.621094-23.773438-18.929688-49.917969-20.898438-77.335938h240.289063zm-265.914063-77.335938c1.648437 26.800781 7.683594 52.886719 17.757813 77.335938h-138.390626l-4.488281-77.335938zm-100.460937 424.710938-18.425782-317.324219h151.554688c8.765625 14.960938 19.179687 29.066406 31.160156 42.035156 38.5 41.675782 89.820312 68.300782 145.5625 75.785156 5.519531 18.144532 22.40625 31.386719 42.328125 31.386719h3.785156l-9.761719 168.117188zm0 0"/></svg>