<svg height="511pt" viewBox="0 -54 511.99799 511" width="511pt" xmlns="http://www.w3.org/2000/svg"><path d="m113.746094 232.488281c-31.628906 0-57.359375 25.730469-57.359375 57.359375 0 31.625 25.730469 57.355469 57.359375 57.355469 31.625 0 57.355468-25.730469 57.355468-57.355469 0-31.628906-25.730468-57.359375-57.355468-57.359375zm0 84.554688c-15 0-27.203125-12.199219-27.203125-27.199219 0-14.996094 12.203125-27.199219 27.203125-27.199219 14.996094 0 27.195312 12.203125 27.195312 27.199219 0 15-12.199218 27.199219-27.195312 27.199219zm0 0"/><path d="m444.519531 185.945312c-21.308593-54.703124-73.890625-93.898437-135.664062-95.488281v-59.800781h51.628906c8.328125 0 15.078125-6.75 15.078125-15.078125s-6.75-15.078125-15.078125-15.078125h-221.335937c-46.394532 0-84.140626 37.746094-84.140626 84.140625v107.835937c-32.945312 19.945313-55.007812 56.128907-55.007812 97.371094 0 62.71875 51.027344 113.742188 113.746094 113.742188 62.714844 0 113.742187-51.027344 113.742187-113.742188 0-12.078125-1.898437-23.71875-5.402343-34.652344h67.828124c-3.503906 10.933594-5.402343 22.574219-5.402343 34.652344 0 62.71875 51.023437 113.742188 113.742187 113.742188s113.742188-51.027344 113.742188-113.742188c.003906-46.253906-27.75-86.144531-67.476563-103.902344zm-129.851562 103.902344c0-46.09375 37.496093-83.589844 83.585937-83.589844 46.09375 0 83.589844 37.5 83.589844 83.589844s-37.5 83.585938-83.589844 83.585938-83.585937-37.496094-83.585937-83.585938zm-35.972657-199.441406h-81.6875v-59.75h81.6875zm-193.53125-5.765625c0-29.765625 24.21875-53.984375 53.984376-53.984375h27.703124v59.75h-81.6875zm0 35.921875h81.6875v68.722656c-15.863281-8.410156-33.933593-13.183594-53.105468-13.183594-9.871094 0-19.445313 1.265626-28.582032 3.636719zm112.167969 169.285156c0 46.089844-37.496093 83.585938-83.585937 83.585938-46.09375 0-83.589844-37.496094-83.589844-83.585938 0-46.09375 37.496094-83.589844 83.589844-83.589844 46.089844 0 83.585937 37.496094 83.585937 83.589844zm9.832031-64.808594c-3.152343-4.535156-6.628906-8.828124-10.394531-12.851562h.238281v-91.621094h107.945313c42.507813 0 79.898437 22.296875 101.101563 55.808594-2.578126-.175781-5.175782-.273438-7.800782-.273438-38.652344 0-72.855468 19.386719-93.421875 48.941407h-97.667969zm0 0"/><path d="m398.253906 232.488281c-31.625 0-57.355468 25.730469-57.355468 57.359375 0 31.625 25.730468 57.355469 57.355468 57.355469 31.628906 0 57.359375-25.730469 57.359375-57.355469 0-31.628906-25.730469-57.359375-57.359375-57.359375zm0 84.554688c-14.996094 0-27.195312-12.199219-27.195312-27.199219 0-14.996094 12.199218-27.199219 27.195312-27.199219 15 0 27.203125 12.203125 27.203125 27.199219-.003906 15-12.203125 27.199219-27.203125 27.199219zm0 0"/></svg>