<svg height="511pt" viewBox="-90 1 511 511.99893" width="511pt" xmlns="http://www.w3.org/2000/svg"><path d="m238.355469 283.296875c4.992187-.449219 9.445312-3.300781 11.945312-7.644531 55.359375-96.179688 81.140625-251.242188 82.210938-257.796875 1.195312-7.332031-3.019531-14.46875-10.019531-16.960938-7-2.492187-14.777344.375-18.484376 6.8125l-137.402343 238.714844-137.402344-238.714844c-3.707031-6.4375-11.488281-9.304687-18.484375-6.8125-7 2.492188-11.214844 9.628907-10.015625 16.960938 1.070313 6.554687 26.847656 161.617187 82.207031 257.796875 2.5 4.34375 6.957032 7.195312 11.945313 7.644531l48.03125 4.335937-16.71875 29.046876c-6.101563-1.015626-12.402344-.726563-18.554688.933593-11.300781 3.042969-20.738281 10.304688-26.578125 20.449219l-62.320312 108.269531c-12.050782 20.9375-4.820313 47.78125 16.117187 59.835938h.003907c6.867187 3.953125 14.371093 5.832031 21.78125 5.832031 15.175781 0 29.953124-7.882812 38.050781-21.953125l62.320312-108.269531c5.835938-10.144532 7.378907-21.953125 4.332031-33.253906-1.65625-6.144532-4.566406-11.734376-8.5-16.496094l13.785157-23.957032 13.789062 23.957032c-3.933593 4.761718-6.84375 10.351562-8.5 16.496094-3.046875 11.300781-1.503906 23.113281 4.332031 33.253906l62.320313 108.269531c8.097656 14.074219 22.871094 21.953125 38.050781 21.953125 7.40625 0 14.914063-1.882812 21.78125-5.832031 20.941406-12.054688 28.171875-38.898438 16.117188-59.835938l-62.316406-108.269531c-5.839844-10.144531-15.277344-17.40625-26.582032-20.449219-6.148437-1.660156-12.449218-1.945312-18.550781-.933593l-16.71875-29.046876zm42.367187-173.488281c-12.324218 46.34375-30.011718 100.882812-53.210937 143.589844l-31.050781 2.804687zm-175.023437 143.589844c-23.171875-42.667969-40.863281-97.207032-53.191407-143.554688l84.242188 146.359375zm1.988281 100.003906c1.738281-3.023438 4.554688-5.1875 7.925781-6.097656 3.371094-.90625 6.890625-.445313 9.914063 1.292968 3.023437 1.742188 5.191406 4.558594 6.097656 7.925782.90625 3.371093.449219 6.890624-1.292969 9.917968l-8.371093 14.542969-22.648438-13.035156zm-39.671875 121.304687c-3.59375 6.242188-11.597656 8.398438-17.839844 4.808594-6.246093-3.597656-8.402343-11.601563-4.804687-17.84375l38.601562-67.070313 22.648438 13.035157zm215.023437 4.808594c-6.242187 3.589844-14.246093 1.433594-17.839843-4.808594l-38.605469-67.070312 22.644531-13.035157 38.605469 67.070313c3.59375 6.242187 1.4375 14.246094-4.804688 17.84375zm-57.511718-126.113281 8.371094 14.546875-22.644532 13.035156-8.375-14.542969c-1.742187-3.027344-2.199218-6.546875-1.292968-9.917968.910156-3.367188 3.074218-6.183594 6.097656-7.925782 2.011718-1.15625 4.238281-1.746094 6.496094-1.746094 1.140624 0 2.289062.148438 3.417968.453126 3.371094.910156 6.1875 3.074218 7.929688 6.097656zm0 0"/></svg>