<svg height="512pt" viewBox="0 -43 512 512" width="512pt" xmlns="http://www.w3.org/2000/svg"><path d="m512 106.808594c0-58.894532-47.914062-106.808594-106.808594-106.808594-53.820312 0-98.464844 40.015625-105.757812 91.859375h-112.773438c-7.890625 0-14.425781 6.128906-14.921875 14.003906l-7.789062 122.753907-45.960938-45.964844c.292969-2.554688.460938-5.140625.460938-7.75 0-17.851563-6.949219-34.628906-19.570313-47.25-5.839844-5.839844-15.304687-5.839844-21.144531 0l-73.355469 73.351562c-2.804687 2.804688-4.378906 6.609375-4.378906 10.574219s1.574219 7.769531 4.378906 10.574219c13.027344 13.023437 30.136719 19.539062 47.25 19.539062 3.035156 0 6.070313-.214844 9.082032-.625l96.339843 96.339844-4.652343 73.328125c-.261719 4.121094 1.195312 8.167969 4.019531 11.179687 2.828125 3.011719 6.773437 4.71875 10.902343 4.71875h237.871094c4.128906 0 8.074219-1.707031 10.902344-4.71875 2.824219-3.011718 4.28125-7.058593 4.019531-11.179687l-12.507812-197.144531c57.785156-1.289063 104.394531-48.691406 104.394531-106.78125zm-140.183594 14.953125 1.390625 21.882812h-173.902343l1.386718-21.882812zm-174.40625 51.785156h177.691406l14.160157 223.183594h-206.011719zm-111.324218-11.957031c1.613281 4.191406 2.460937 8.6875 2.460937 13.3125 0 9.859375-3.84375 19.128906-10.8125 26.101562-10.632813 10.632813-26.195313 13.410156-39.398437 8.335938zm4.8125 67.375c2.792968-2.03125 5.464843-4.296875 7.980468-6.8125 2.765625-2.765625 5.242188-5.742188 7.449219-8.871094l55.101563 55.101562-1.855469 29.253907zm314.8125-45.261719-4.9375-77.839844c-.5-7.875-7.03125-14.003906-14.921876-14.003906h-56.097656c6.980469-35.273437 38.144532-61.957031 75.433594-61.957031 42.40625 0 76.90625 34.5 76.90625 76.90625.003906 42.230468-34.21875 76.609375-76.382812 76.894531zm0 0"/></svg>