<svg height="511pt" viewBox="0 0 511.99948 511" width="511pt" xmlns="http://www.w3.org/2000/svg"><path d="m143.140625 307.523438c-34.097656 0-61.835937 27.738281-61.835937 61.835937 0 34.09375 27.738281 61.832031 61.835937 61.832031 34.09375 0 61.832031-27.738281 61.832031-61.832031 0-34.097656-27.738281-61.835937-61.832031-61.835937zm0 92.382812c-16.84375 0-30.546875-13.703125-30.546875-30.546875s13.703125-30.546875 30.546875-30.546875 30.546875 13.703125 30.546875 30.546875-13.703125 30.546875-30.546875 30.546875zm0 0"/><path d="m256 194.664062c-34.097656 0-61.835938 27.742188-61.835938 61.835938s27.738282 61.832031 61.835938 61.832031c34.09375 0 61.832031-27.738281 61.832031-61.832031s-27.738281-61.835938-61.832031-61.835938zm0 92.382813c-16.84375 0-30.546875-13.703125-30.546875-30.546875s13.703125-30.546875 30.546875-30.546875 30.546875 13.703125 30.546875 30.546875-13.703125 30.546875-30.546875 30.546875zm0 0"/><path d="m368.859375 81.804688c-34.097656 0-61.835937 27.742187-61.835937 61.835937s27.738281 61.832031 61.835937 61.832031c34.09375 0 61.832031-27.738281 61.832031-61.832031s-27.738281-61.835937-61.832031-61.835937zm0 92.382812c-16.84375 0-30.550781-13.703125-30.550781-30.546875s13.707031-30.546875 30.550781-30.546875c16.839844 0 30.542969 13.703125 30.542969 30.546875.003906 16.84375-13.699219 30.546875-30.542969 30.546875zm0 0"/><path d="m511.90625 48.585938c-1.542969-25.816407-22.175781-46.453126-47.996094-47.996094-13.507812-.796875-26.542968 3.625-36.714844 12.472656-7.105468 6.183594-17.148437 8.410156-26.867187 5.964844-10.234375-2.582032-20.824219-3.890625-31.46875-3.890625-65.855469 0-120.296875 49.792969-127.65625 113.703125-59.058594 6.804687-106.058594 53.804687-112.859375 112.859375-63.914062 7.363281-113.707031 61.804687-113.707031 127.65625 0 10.648437 1.308593 21.234375 3.890625 31.472656 2.449218 9.71875.21875 19.761719-5.960938 26.867187-8.851562 10.167969-13.28125 23.207032-12.472656 36.714844 1.542969 25.820313 22.175781 46.453125 47.996094 47.996094 1.046875.0625 2.089844.09375 3.132812.09375 12.375 0 24.199219-4.402344 33.582032-12.566406 7.101562-6.183594 17.144531-8.410156 26.867187-5.960938 10.238281 2.578125 20.824219 3.886719 31.46875 3.886719 65.855469 0 120.296875-49.792969 127.65625-113.703125 59.058594-6.800781 106.058594-53.804688 112.859375-112.859375 63.914062-7.363281 113.707031-61.804687 113.707031-127.65625 0-10.644531-1.308593-21.234375-3.890625-31.472656-2.449218-9.71875-.21875-19.761719 5.964844-26.867188 8.847656-10.167969 13.273438-23.210937 12.46875-36.714843zm-36.074219 16.175781c-12.902343 14.828125-17.648437 35.40625-12.699219 55.054687 1.949219 7.738282 2.941407 15.753906 2.941407 23.824219 0 53.601563-43.613281 97.214844-97.214844 97.214844-8.640625 0-15.644531 7.003906-15.644531 15.644531 0 53.601562-43.613282 97.214844-97.214844 97.214844-8.640625 0-15.644531 7.003906-15.644531 15.644531 0 53.605469-43.613281 97.214844-97.214844 97.214844-8.070313 0-16.085937-.988281-23.828125-2.9375-19.644531-4.957031-40.222656-.207031-55.050781 12.695312-3.949219 3.4375-9.03125 5.160157-14.308594 4.84375-9.859375-.589843-18.042969-8.769531-18.628906-18.628906-.316407-5.277344 1.402343-10.359375 4.84375-14.308594 12.898437-14.828125 17.648437-35.40625 12.695312-55.054687-1.949219-7.738282-2.9375-15.753906-2.9375-23.824219 0-53.601563 43.609375-97.214844 97.214844-97.214844 8.636719 0 15.640625-7.003906 15.640625-15.644531 0-53.601562 43.613281-97.214844 97.214844-97.214844 8.640625 0 15.644531-7.003906 15.644531-15.644531 0-53.605469 43.609375-97.214844 97.214844-97.214844 8.070312 0 16.085937.988281 23.828125 2.9375 19.644531 4.953125 40.222656.207031 55.046875-12.695312 3.953125-3.4375 9.035156-5.15625 14.3125-4.84375 9.859375.589843 18.042969 8.769531 18.628906 18.628906.316406 5.277344-1.402344 10.359375-4.839844 14.308594zm0 0"/></svg>