<svg height="512pt" viewBox="-12 0 512 512.00087" width="512pt" xmlns="http://www.w3.org/2000/svg"><path d="m484.320312 156.410156c-1.820312-1.789062-45.316406-44.226562-109.667968-84.746094-38.011719-23.929687-75.410156-42.160156-111.160156-54.191406-45.441407-15.289062-88.425782-20.582031-127.753907-15.730468-6.589843.8125-11.890625 5.796874-13.113281 12.320312-1.21875 6.527344 1.925781 13.089844 7.769531 16.230469 1.996094 1.070312 194.21875 105.167969 249.855469 208.835937l-22.597656 22.597656-122.46875-.128906c-.007813 0-.011719 0-.019532 0-4.039062 0-7.914062 1.605469-10.773437 4.464844l-68.179687 68.175781-16.785157-16.785156c-2.859375-2.859375-6.734375-4.464844-10.773437-4.464844-4.042969 0-7.917969 1.605469-10.777344 4.464844l-101.992188 101.996094c-10.242187 10.238281-15.882812 23.851562-15.882812 38.335937 0 14.480469 5.640625 28.097656 15.878906 38.335938 10.242188 10.238281 23.855469 15.878906 38.335938 15.878906 14.484375 0 28.097656-5.640625 38.339844-15.878906l101.996093-101.996094c5.949219-5.949219 5.949219-15.597656 0-21.550781l-16.789062-16.785157 63.710937-63.707031 122.46875.128907h.015625c4.042969 0 7.917969-1.605469 10.777344-4.464844l109.6875-109.6875c2.875-2.875 4.480469-6.777344 4.460937-10.84375-.019531-4.066406-1.660156-7.957032-4.5625-10.804688zm-413.316406 318.160156c-4.484375 4.484376-10.445312 6.953126-16.789062 6.953126-6.339844 0-12.300782-2.46875-16.78125-6.953126-.003906 0-.003906 0-.003906-.003906-4.484376-4.480468-6.953126-10.441406-6.953126-16.78125 0-6.34375 2.46875-12.304687 6.953126-16.789062l52.578124-52.574219 33.570313 33.574219zm74.125-74.125-33.574218-33.574218 17.097656-17.097656 33.570312 33.574218zm257.480469-183.675781c-26.121094-43.992187-74.699219-91.617187-144.773437-141.886719-23.167969-16.621093-45.226563-31.023437-63.613282-42.457031 61.242188 7.785157 120.589844 37.636719 163.671875 64.703125 43.117188 27.089844 77.070313 55.679688 93.765625 70.589844zm0 0"/></svg>