<svg height="512pt" viewBox="-29 0 512 512.00102" width="512pt" xmlns="http://www.w3.org/2000/svg"><path d="m451.960938 168.757812c-13.808594-47.703124-43.277344-90.652343-82.96875-120.929687-41.015626-31.289063-90.035157-47.828125-141.753907-47.828125-51.714843 0-100.734375 16.539062-141.753906 47.828125-39.691406 30.277344-69.15625 73.226563-82.96875 120.929687-5.539063 19.140626-1.835937 39.277344 10.167969 55.25 12.074218 16.0625 30.515625 25.277344 50.597656 25.277344h88.996094v187.75c0 41.335938 33.628906 74.964844 74.964844 74.964844 41.339843 0 74.96875-33.628906 74.96875-74.964844v-187.753906h88.988281c20.082031 0 38.523437-9.210938 50.597656-25.277344 12-15.96875 15.707031-36.105468 10.164063-55.246094zm-180.472657 125.972657h-88.492187v-45.445313h88.492187zm-44.246093 186.550781c-24.398438 0-44.246094-19.851562-44.246094-44.25v-111.578125h88.492187v111.578125c0 24.398438-19.847656 44.25-44.246093 44.25zm189.996093-275.730469c-6.214843 8.269531-15.707031 13.011719-26.042969 13.011719h-327.914062c-10.332031 0-19.824219-4.742188-26.039062-13.011719-6.144532-8.179687-8.046876-18.472656-5.21875-28.25 24.988281-86.304687 105.261718-146.582031 195.214843-146.582031s170.230469 60.277344 195.214844 146.582031c2.828125 9.777344.929687 20.070313-5.214844 28.25zm0 0"/><path d="m279.671875 75.574219c-8.03125 0-15.730469 7.066406-15.359375 15.359375.375 8.324218 6.75 15.359375 15.359375 15.359375 8.035156 0 15.734375-7.0625 15.363281-15.359375-.375-8.320313-6.75-15.359375-15.363281-15.359375zm0 0"/><path d="m332.105469 142.988281c-8.03125 0-15.730469 7.066407-15.359375 15.359375.375 8.324219 6.75 15.363282 15.359375 15.363282 8.035156 0 15.734375-7.066407 15.363281-15.363282-.375-8.320312-6.75-15.359375-15.363281-15.359375zm0 0"/><path d="m227.238281 142.988281c-8.03125 0-15.730469 7.066407-15.359375 15.359375.375 8.324219 6.75 15.363282 15.359375 15.363282 8.035157 0 15.734375-7.066407 15.359375-15.363282-.371094-8.320312-6.746094-15.359375-15.359375-15.359375zm0 0"/><path d="m174.804688 75.574219c-8.035157 0-15.730469 7.066406-15.359376 15.359375.371094 8.324218 6.75 15.359375 15.359376 15.359375 8.035156 0 15.734374-7.0625 15.359374-15.359375-.371093-8.320313-6.746093-15.359375-15.359374-15.359375zm0 0"/><path d="m122.371094 142.988281c-8.035156 0-15.730469 7.066407-15.359375 15.359375.371093 8.324219 6.75 15.363282 15.359375 15.363282 8.035156 0 15.730468-7.066407 15.359375-15.363282-.371094-8.320312-6.75-15.359375-15.359375-15.359375zm0 0"/></svg>