<svg height="512pt" viewBox="0 -11 512 512" width="512pt" xmlns="http://www.w3.org/2000/svg"><path d="m195.0625 279.132812c7.9375 0 15.542969-6.984374 15.175781-15.179687-.367187-8.222656-6.667969-15.179687-15.175781-15.179687-7.941406 0-15.546875 6.984374-15.179688 15.179687.371094 8.222656 6.671876 15.179687 15.179688 15.179687zm0 0"/><path d="m161.566406 317.101562c-.367187-8.222656-6.667968-15.175781-15.175781-15.175781-7.941406 0-15.546875 6.980469-15.179687 15.175781.367187 8.226563 6.667968 15.179688 15.179687 15.179688 7.9375 0 15.542969-6.980469 15.175781-15.179688zm0 0"/><path d="m195.0625 385.433594c7.9375 0 15.542969-6.984375 15.175781-15.179688-.367187-8.222656-6.667969-15.179687-15.175781-15.179687-7.941406 0-15.546875 6.984375-15.179688 15.179687.371094 8.222656 6.671876 15.179688 15.179688 15.179688zm0 0"/><path d="m316.9375 355.074219c-7.9375 0-15.542969 6.984375-15.175781 15.179687.367187 8.222656 6.667969 15.179688 15.175781 15.179688 7.941406 0 15.546875-6.984375 15.179688-15.179688-.371094-8.222656-6.671876-15.179687-15.179688-15.179687zm0 0"/><path d="m365.609375 301.925781c-7.9375 0-15.542969 6.980469-15.175781 15.175781.367187 8.226563 6.667968 15.179688 15.175781 15.179688 7.941406 0 15.546875-6.980469 15.179687-15.179688-.367187-8.222656-6.667968-15.175781-15.179687-15.175781zm0 0"/><path d="m316.9375 248.773438c-7.9375 0-15.542969 6.984374-15.175781 15.179687.367187 8.222656 6.667969 15.179687 15.175781 15.179687 7.941406 0 15.546875-6.984374 15.179688-15.179687-.371094-8.222656-6.671876-15.179687-15.179688-15.179687zm0 0"/><path d="m496.820312 258.117188h-51.273437c-1.757813-28.992188-8.542969-56.875-19.867187-82.324219l44.996093-27.421875c7.15625-4.363282 9.421875-13.703125 5.058594-20.859375s-13.699219-9.425781-20.859375-5.0625l-43.417969 26.464843c-6.054687-9.753906-12.855469-19.007812-20.382812-27.660156-22.113281-25.414062-48.78125-43.789062-77.941407-54.179687v-19.5c0-9.492188 7.722657-17.21875 17.21875-17.21875h16.277344c8.382813 0 15.175782-6.796875 15.175782-15.175781 0-8.382813-6.792969-15.179688-15.175782-15.179688h-16.277344c-26.234374 0-47.574218 21.34375-47.574218 47.574219v11.742187c-8.796875-1.398437-17.738282-2.125-26.78125-2.125-9.042969 0-17.980469.726563-26.773438 2.125v-11.742187c0-26.230469-21.339844-47.574219-47.574218-47.574219h-16.277344c-8.382813 0-15.175782 6.796875-15.175782 15.179688 0 8.382812 6.792969 15.175781 15.175782 15.175781h16.277344c9.496093 0 17.21875 7.726562 17.21875 17.21875v19.496093c-29.160157 10.390626-55.832032 28.769532-77.949219 54.1875-7.527344 8.648438-14.328125 17.902344-20.378907 27.652344l-43.414062-26.460937c-7.160156-4.363281-16.496094-2.09375-20.859375 5.0625-4.363281 7.160156-2.097656 16.496093 5.0625 20.859375l44.984375 27.421875c-11.324219 25.449219-18.105469 53.332031-19.863281 82.324219h-51.269531c-8.382813 0-15.179688 6.796874-15.179688 15.175781 0 8.382812 6.796875 15.179687 15.179688 15.179687h51.269531c1.757812 28.992188 8.539062 56.875 19.863281 82.328125l-44.984375 27.417969c-7.160156 4.363281-9.425781 13.703125-5.0625 20.859375 2.859375 4.691406 7.855469 7.28125 12.972656 7.28125 2.691407 0 5.421875-.71875 7.886719-2.21875l43.414062-26.460937c6.054688 9.75 12.855469 19.003906 20.378907 27.652343 35.949219 41.3125 83.921875 64.066407 135.078125 64.066407h.003906c51.15625-.003907 99.128906-22.753907 135.074219-64.066407 7.527343-8.648437 14.328125-17.902343 20.382812-27.65625l43.417969 26.464844c2.464844 1.503906 5.191406 2.21875 7.882812 2.21875 5.121094 0 10.117188-2.589844 12.976563-7.28125 4.363281-7.15625 2.097656-16.496094-5.0625-20.859375l-44.992187-27.421875c11.324218-25.449219 18.105468-53.332031 19.863281-82.324219h51.277343c8.382813 0 15.179688-6.792968 15.179688-15.175781s-6.796875-15.179687-15.179688-15.179687zm-240.824218-170.570313c60.007812 0 112.382812 38.722656 139.65625 95.8125h-279.308594c27.269531-57.089844 79.644531-95.8125 139.652344-95.8125zm-159.660156 185.746094c0-20.828125 2.964843-40.867188 8.425781-59.578125h136.058593v244.480468c-80.941406-8.917968-144.484374-88.433593-144.484374-184.902343zm174.84375 184.902343v-244.480468h136.050781c5.460937 18.707031 8.425781 38.75 8.425781 59.578125 0 96.464843-63.535156 175.976562-144.476562 184.902343zm0 0"/></svg>