<svg height="512pt" viewBox="0 -55 512 512" width="512pt" xmlns="http://www.w3.org/2000/svg"><path d="m99.078125 312.460938c-16.519531 0-31.425781 7.042968-41.878906 18.277343-10.453125-11.234375-25.359375-18.277343-41.878907-18.277343-8.460937 0-15.320312 6.859374-15.320312 15.320312s6.859375 15.316406 15.320312 15.316406c14.644532 0 26.558594 11.917969 26.558594 26.5625v17.886719c0 8.460937 6.859375 15.320313 15.320313 15.320313 8.460937 0 15.320312-6.859376 15.320312-15.320313v-17.886719c0-14.644531 11.914063-26.5625 26.558594-26.5625 8.460937 0 15.320313-6.855468 15.320313-15.316406s-6.859376-15.320312-15.320313-15.320312zm0 0"/><path d="m364.148438 312.460938c-9.585938 0-18.621094 2.382812-26.5625 6.566406v-159.472656c0-24.652344-16.894532-45.4375-39.710938-51.382813v-42.046875h2.722656c8.460938 0 15.320313-6.859375 15.320313-15.320312 0-8.460938-6.859375-15.316407-15.320313-15.316407h-89.195312c-8.460938 0-15.320313 6.855469-15.320313 15.316407 0 8.460937 6.859375 15.320312 15.320313 15.320312h2.722656v42.046875c-22.816406 5.949219-39.710938 26.730469-39.710938 51.382813v159.472656c-7.941406-4.183594-16.976562-6.566406-26.5625-6.566406-8.457031 0-15.316406 6.859374-15.316406 15.320312 0 8.457031 6.859375 15.316406 15.316406 15.316406 14.648438 0 26.5625 11.914063 26.5625 26.5625v17.886719c0 8.460937 6.859376 15.320313 15.320313 15.320313h132.535156c8.457031 0 15.316407-6.859376 15.316407-15.320313v-17.886719c0-14.648437 11.914062-26.5625 26.5625-26.5625 8.460937 0 15.316406-6.859375 15.316406-15.316406 0-8.460938-6.855469-15.320312-15.316406-15.320312zm-96.910157-246.335938v40.335938h-22.476562v-40.335938zm-62.1875 303.535156c0-14.644531 11.917969-26.5625 26.5625-26.5625 8.460938 0 15.320313-6.855468 15.320313-15.316406s-6.859375-15.320312-15.320313-15.320312c-9.585937 0-18.617187 2.382812-26.5625 6.566406v-159.472656c0-12.382813 10.078125-22.457032 22.460938-22.457032h56.980469c12.382812 0 22.457031 10.074219 22.457031 22.457032v159.472656c-7.945313-4.183594-16.976563-6.566406-26.5625-6.566406-8.460938 0-15.320313 6.859374-15.320313 15.320312s6.859375 15.316406 15.320313 15.316406c14.648437 0 26.5625 11.917969 26.5625 26.5625v2.570313h-101.898438zm0 0"/><path d="m496.679688 312.460938c-16.519532 0-31.425782 7.042968-41.878907 18.277343-10.453125-11.234375-25.359375-18.277343-41.878906-18.277343-8.460937 0-15.320313 6.859374-15.320313 15.320312s6.859376 15.316406 15.320313 15.316406c14.644531 0 26.558594 11.917969 26.558594 26.5625v17.886719c0 8.460937 6.859375 15.320313 15.320312 15.320313 8.460938 0 15.320313-6.859376 15.320313-15.320313v-17.886719c0-14.644531 11.914062-26.5625 26.558594-26.5625 8.460937 0 15.320312-6.855468 15.320312-15.316406s-6.859375-15.320312-15.320312-15.320312zm0 0"/><path d="m117.347656 106.460938c-8.011718 0-15.691406 7.046874-15.320312 15.320312.371094 8.296875 6.730468 15.316406 15.320312 15.316406 8.011719 0 15.6875-7.042968 15.320313-15.316406-.375-8.300781-6.730469-15.320312-15.320313-15.320312zm0 0"/><path d="m166.472656 101.613281c8.011719 0 15.691406-7.046875 15.320313-15.320312-.371094-8.300781-6.730469-15.320313-15.320313-15.320313-8.011718 0-15.6875 7.046875-15.320312 15.320313.375 8.300781 6.730468 15.320312 15.320312 15.320312zm0 0"/><path d="m117.347656 66.125c8.011719 0 15.6875-7.046875 15.320313-15.320312-.375-8.296876-6.734375-15.316407-15.320313-15.316407-8.011718 0-15.691406 7.042969-15.320312 15.316407.371094 8.300781 6.730468 15.320312 15.320312 15.320312zm0 0"/><path d="m64.242188 101.613281c8.011718 0 15.6875-7.046875 15.316406-15.320312-.371094-8.300781-6.730469-15.320313-15.316406-15.320313-8.011719 0-15.691407 7.046875-15.320313 15.320313.371094 8.300781 6.730469 15.320312 15.320313 15.320312zm0 0"/><path d="m64.242188 30.636719c8.011718 0 15.6875-7.042969 15.316406-15.316407-.371094-8.300781-6.730469-15.320312-15.316406-15.320312-8.011719 0-15.691407 7.046875-15.320313 15.320312.371094 8.296876 6.730469 15.316407 15.320313 15.316407zm0 0"/><path d="m64.242188 172.585938c8.011718 0 15.6875-7.046876 15.316406-15.320313-.371094-8.300781-6.730469-15.316406-15.316406-15.316406-8.011719 0-15.691407 7.042969-15.320313 15.316406.371094 8.300781 6.730469 15.320313 15.320313 15.320313zm0 0"/><path d="m394.660156 66.125c8.011719 0 15.6875-7.046875 15.316406-15.320312-.371093-8.300782-6.730468-15.320313-15.316406-15.320313-8.015625 0-15.691406 7.046875-15.320312 15.320313.371094 8.300781 6.730468 15.320312 15.320312 15.320312zm0 0"/><path d="m345.535156 101.613281c8.011719 0 15.6875-7.046875 15.316406-15.320312-.371093-8.300781-6.730468-15.320313-15.316406-15.320313-8.015625 0-15.691406 7.046875-15.320312 15.320313.371094 8.300781 6.730468 15.320312 15.320312 15.320312zm0 0"/><path d="m409.976562 121.78125c-.371093-8.300781-6.730468-15.320312-15.316406-15.320312-8.015625 0-15.691406 7.046874-15.320312 15.320312.371094 8.296875 6.730468 15.316406 15.320312 15.316406 8.011719 0 15.6875-7.046875 15.316406-15.316406zm0 0"/><path d="m447.765625 101.613281c8.011719 0 15.6875-7.046875 15.316406-15.320312-.371093-8.300781-6.730469-15.320313-15.316406-15.320313-8.015625 0-15.691406 7.046875-15.320313 15.320313.371094 8.300781 6.730469 15.320312 15.320313 15.320312zm0 0"/><path d="m447.765625 172.585938c8.011719 0 15.6875-7.046876 15.316406-15.320313-.371093-8.300781-6.730469-15.316406-15.316406-15.316406-8.015625 0-15.691406 7.042969-15.320313 15.316406.371094 8.300781 6.730469 15.320313 15.320313 15.320313zm0 0"/><path d="m447.765625 30.636719c8.011719 0 15.6875-7.042969 15.316406-15.316407-.371093-8.300781-6.730469-15.320312-15.316406-15.320312-8.015625 0-15.691406 7.046875-15.320313 15.320312.371094 8.296876 6.730469 15.316407 15.320313 15.316407zm0 0"/></svg>