<svg height="512pt" viewBox="0 0 512 512" width="512pt" xmlns="http://www.w3.org/2000/svg"><path d="m497 241h-22.738281c-5.761719-17.671875-22.386719-30.480469-41.953125-30.480469-19.570313 0-36.195313 12.808594-41.957032 30.480469h-21.113281v-3.019531c0-8.28125-6.714843-15-15-15-8.285156 0-15 6.71875-15 15v3.019531h-31.597656c-1.03125-3.890625-2.492187-7.605469-4.328125-11.101562l22.589844-22.585938.59375.59375c2.929687 2.929688 6.765625 4.394531 10.605468 4.394531 3.835938 0 7.679688-1.464843 10.605469-4.394531 5.859375-5.859375 5.859375-15.355469 0-21.214844l-.59375-.59375 15.476563-15.476562c5.695312 2.523437 11.8125 3.796875 17.9375 3.796875 11.296875 0 22.597656-4.300781 31.199218-12.902344 13.261719-13.261719 16.289063-32.929687 9.101563-49.132813l16.191406-16.1875c5.855469-5.859374 5.855469-15.355468 0-21.214843-5.859375-5.855469-15.355469-5.855469-21.214843 0l-15.769532 15.769531c-16.484375-8.109375-37.011718-5.328125-50.707031 8.367188-13.695313 13.695312-16.476563 34.222656-8.367187 50.707031l-15.058594 15.0625-1.753906-1.753907c-5.855469-5.855468-15.355469-5.855468-21.210938 0-5.859375 5.859376-5.859375 15.355469 0 21.214844l1.75 1.75-22.195312 22.195313c-3.59375-2.058594-7.441407-3.714844-11.492188-4.902344v-31.300781h1.65625c8.285156 0 15-6.714844 15-15s-6.714844-15-15-15h-1.65625v-21.574219c16.96875-6.152344 29.125-22.429687 29.125-41.496094 0-19.066406-12.15625-35.34375-29.125-41.496093v-22.523438c0-8.285156-6.71875-15-15-15-8.285156 0-15 6.714844-15 15v22.527344c-16.964844 6.152344-29.121094 22.429687-29.121094 41.492187 0 19.066407 12.15625 35.339844 29.121094 41.492188v21.578125h-1.660156c-8.285156 0-15 6.714844-15 15s6.714844 15 15 15h1.660156v31.300781c-4.050781 1.1875-7.902344 2.84375-11.496094 4.902344l-21.851562-21.851563 1.613281-1.609375c5.855469-5.855469 5.855469-15.355469 0-21.210937-5.859375-5.859375-15.355469-5.859375-21.214844 0l-1.609375 1.609375-15.109375-15.109375c7.996094-16.453125 5.1875-36.878906-8.457031-50.523438-13.644531-13.640625-34.070312-16.453125-50.519531-8.457031l-16.160157-16.160156c-5.859374-5.855469-15.355468-5.855469-21.214843 0s-5.859375 15.355469 0 21.214843l16.476562 16.476563c-7.296875 16.234375-4.296875 36.011719 9.019531 49.328125 8.601563 8.601562 19.898438 12.898438 31.199219 12.898438 6.191407 0 12.378907-1.296876 18.128907-3.882813l15.421874 15.425781-.734374.734375c-5.859376 5.859375-5.859376 15.355469 0 21.214844 2.929687 2.929687 6.765624 4.394531 10.605468 4.394531s7.679688-1.464844 10.605469-4.394531l.738281-.738281 22.242188 22.246094c-1.832032 3.492187-3.296875 7.207031-4.328125 11.101562h-30.910157v-2.332031c0-8.285157-6.714843-15-15-15-8.28125 0-15 6.714843-15 15v2.332031h-21.34375c-5.960937-17.320312-22.40625-29.800781-41.722656-29.800781s-35.761718 12.480469-41.722656 29.800781h-23.65625c-8.285156 0-15 6.714844-15 15 0 8.28125 6.714844 15 15 15h24.144531c6.335938 16.609375 22.421875 28.445312 41.234375 28.445312 18.808594 0 34.898438-11.835937 41.234375-28.445312h21.835938v.984375c0 8.285156 6.714843 15 15 15 8.285156 0 15-6.714844 15-15v-.984375h31.710937c1.144532 3.554688 2.660156 6.949219 4.488282 10.136719l-22.191407 22.191406-1.265625-1.265625c-5.859375-5.859375-15.355468-5.859375-21.214844 0-5.855468 5.855469-5.855468 15.351562 0 21.210938l1.269532 1.269531-15.226563 15.222656c-16.371093-7.722656-36.542969-4.832031-50.0625 8.683594-13.515625 13.515625-16.40625 33.691406-8.683593 50.0625l-17.292969 17.292969c-5.859375 5.859374-5.859375 15.355468 0 21.214843 2.929687 2.929688 6.769531 4.394531 10.605469 4.394531 3.839843 0 7.679687-1.464843 10.605468-4.394531l17.359375-17.359375c5.882813 2.726563 12.242188 4.089844 18.605469 4.089844 11.300781 0 22.597656-4.300781 31.199219-12.902344 13.445312-13.445312 16.382812-33.476562 8.8125-49.800781l15.289062-15.292969 1.078125 1.082032c2.929688 2.925781 6.769532 4.390624 10.605469 4.390624 3.839844 0 7.679687-1.464843 10.609375-4.390624 5.855469-5.859376 5.855469-15.355469 0-21.214844l-1.082031-1.078125 22.585937-22.585938c3.082032 1.621094 6.34375 2.945313 9.742188 3.941407v31.980468h-.972656c-8.28125 0-15 6.714844-15 15s6.71875 15 15 15h.972656v21.835938c-16.605469 6.339844-28.4375 22.425781-28.4375 41.234375 0 18.804687 11.832031 34.894531 28.4375 41.230469v24.820312c0 8.285156 6.71875 15 15 15 8.285156 0 15.003906-6.714844 15.003906-15v-24.324219c17.320312-5.960937 29.804688-22.410156 29.804688-41.726562 0-19.320313-12.484376-35.765625-29.804688-41.726563v-21.34375h2.34375c8.285156 0 15-6.714844 15-15s-6.714844-15-15-15h-2.34375v-31.980468c3.398438-.996094 6.660156-2.320313 9.742188-3.941407l22.929687 22.929688-.25.25c-5.859375 5.859375-5.859375 15.355469 0 21.214843 2.929687 2.929688 6.765625 4.394532 10.605469 4.394532 3.835937 0 7.675781-1.464844 10.605468-4.394532l.25-.25 15.613282 15.613282c-6.917969 16.105468-3.820313 35.523437 9.308594 48.65625 8.605468 8.601562 19.902343 12.902344 31.203124 12.902344 5.949219 0 11.898438-1.207032 17.457032-3.59375l17.339844 17.339843c2.929687 2.929688 6.765624 4.394531 10.605468 4.394531 3.835938 0 7.675782-1.464843 10.605469-4.394531 5.859375-5.855469 5.859375-15.355469 0-21.210937l-16.671875-16.671875c8.390625-16.5625 5.683594-37.34375-8.136719-51.167969-13.824219-13.820312-34.605469-16.527344-51.167969-8.136719l-14.945312-14.945312 2.097656-2.09375c5.855469-5.859375 5.855469-15.355469 0-21.214844-5.859375-5.855469-15.355468-5.855469-21.214844 0l-2.09375 2.09375-22.535156-22.535156c1.828125-3.1875 3.34375-6.578125 4.488282-10.132813h32.398437v.296875c0 8.285157 6.714844 15 15 15s15-6.714843 15-15v-.296875h22.101563c6.511718 16.25 22.417968 27.765625 40.96875 27.765625 18.550781 0 34.453124-11.515625 40.964843-27.765625h23.726563c8.285156 0 15-6.71875 15-15 0-8.285156-6.710938-15.003906-14.996094-15.003906zm-106.484375-100.695312c-5.507813 5.503906-14.46875 5.503906-19.972656 0-5.507813-5.507813-5.507813-14.464844 0-19.972657 2.75-2.753906 6.367187-4.128906 9.984375-4.128906 3.617187 0 7.234375 1.375 9.988281 4.128906 5.503906 5.507813 5.503906 14.464844 0 19.972657zm-134.511719-75.40625c7.785156 0 14.121094 6.335937 14.121094 14.121093 0 7.789063-6.335938 14.121094-14.121094 14.121094-7.789062 0-14.125-6.332031-14.125-14.121094 0-7.785156 6.335938-14.121093 14.125-14.121093zm-134.3125 75.886718c-2.667968-2.667968-4.136718-6.214844-4.136718-9.984375 0-3.773437 1.46875-7.320312 4.136718-9.988281 2.667969-2.667969 6.210938-4.136719 9.984375-4.136719 3.773438 0 7.320313 1.46875 9.988281 4.136719 2.664063 2.667969 4.132813 6.214844 4.132813 9.988281 0 3.769531-1.46875 7.316407-4.132813 9.984375-5.507812 5.507813-14.46875 5.503906-19.972656 0zm-41.3125 128.660156c-7.789062 0-14.121094-6.335937-14.121094-14.121093 0-7.789063 6.332032-14.125 14.121094-14.125 7.785156 0 14.121094 6.335937 14.121094 14.125 0 7.785156-6.335938 14.121093-14.121094 14.121093zm41.792969 100.21875c2.753906-2.753906 6.367187-4.128906 9.984375-4.128906s7.234375 1.375 9.988281 4.128906c5.503907 5.503907 5.503907 14.464844 0 19.972657-5.507812 5.507812-14.46875 5.503906-19.972656 0-5.507813-5.507813-5.507813-14.46875 0-19.972657zm134.511719 75.40625c-7.789063 0-14.121094-6.335937-14.121094-14.121093 0-7.789063 6.332031-14.125 14.121094-14.125 7.785156 0 14.121094 6.335937 14.121094 14.125 0 7.785156-6.335938 14.121093-14.121094 14.121093zm134.3125-75.886718c5.503906 5.507812 5.503906 14.464844 0 19.972656-5.507813 5.507812-14.46875 5.507812-19.972656 0-5.507813-5.507812-5.507813-14.46875 0-19.972656 5.503906-5.507813 14.464843-5.507813 19.972656 0zm-134.996094-137.953125c12.910156 0 23.414062 10.503906 23.414062 23.414062 0 12.910157-10.503906 23.414063-23.414062 23.414063s-23.414062-10.503906-23.414062-23.414063c0-12.910156 10.503906-23.414062 23.414062-23.414062zm190.429688 23.414062c0 7.785157-6.335938 14.121094-14.121094 14.121094-7.789063 0-14.125-6.335937-14.125-14.121094 0-7.789062 6.335937-14.121093 14.125-14.121093 7.785156 0 14.121094 6.332031 14.121094 14.121093zm0 0"/></svg>