<svg height="512pt" viewBox="0 0 512 512.00053" width="512pt" xmlns="http://www.w3.org/2000/svg"><path d="m510.863281 91.914062c-2.316406-5.648437-7.796875-9.355468-13.902343-9.398437l-66.984376-.496094-.496093-66.988281c-.046875-6.101562-3.753907-11.585938-9.402344-13.898438-5.644531-2.316406-12.136719-1.015624-16.453125 3.304688l-40.042969 40.042969c-13.882812 13.882812-21.527343 32.335937-21.527343 51.964843 0 2.457032.121093 4.894532.359374 7.304688-5.289062-1.035156-10.714843-1.566406-16.222656-1.566406-22.339844 0-43.339844 8.695312-59.132812 24.492187-13.914063 13.914063-85.613282 96.382813-151.589844 180.105469-37.410156 47.464844-66.152344 86.675781-85.425781 116.542969-11.675781 18.082031-19.683594 32.394531-24.488281 43.753906-3.070313 7.253906-11.21875 26.523437.8125 38.554687 4.773437 4.769532 10.679687 6.367188 16.523437 6.367188 8.898437 0 17.652344-3.703125 22.03125-5.550781 11.359375-4.808594 25.671875-12.816407 43.753906-24.488281 29.867188-19.277344 69.074219-48.019532 116.546875-85.425782 83.714844-65.976562 166.1875-137.675781 180.101563-151.589844 20.445312-20.445312 28.066406-48.925781 22.871093-75.367187 2.429688.238281 4.878907.363281 7.351563.363281 19.628906 0 38.085937-7.644531 51.96875-21.527344l40.042969-40.042968c4.316406-4.320313 5.621094-10.808594 3.304687-16.457032zm-146.957031 131.613282c-12.125 12.121094-87.304688 77.5625-165.730469 139.945312-103.144531 82.050782-146.910156 107.210938-164.535156 114.886719 7.203125-16.535156 29.804687-56.09375 100.347656-146.128906l13.722657 13.722656c2.957031 2.957031 6.832031 4.4375 10.707031 4.4375s7.753906-1.480469 10.707031-4.4375c5.917969-5.914063 5.917969-15.503906 0-21.417969l-16.214844-16.214844c6.128906-7.671874 12.269532-15.296874 18.375-22.820312l18.4375 18.4375c2.957032 2.957031 6.832032 4.4375 10.707032 4.4375s7.753906-1.480469 10.710937-4.4375c5.914063-5.914062 5.914063-15.503906 0-21.417969l-20.585937-20.582031c6.351562-7.710938 12.597656-15.238281 18.675781-22.515625l22.503906 22.503906c2.960937 2.957031 6.835937 4.4375 10.710937 4.4375s7.75-1.480469 10.707032-4.4375c5.914062-5.914062 5.914062-15.503906 0-21.417969l-24.351563-24.355468c6.699219-7.910156 13.054688-15.355469 18.964844-22.226563l25.984375 25.984375c2.957031 2.957032 6.832031 4.4375 10.707031 4.4375s7.753907-1.480468 10.710938-4.4375c5.914062-5.914062 5.914062-15.503906 0-21.417968l-27.488281-27.488282c10.152343-11.539062 17.472656-19.59375 20.789062-22.910156 10.074219-10.074219 23.46875-15.621094 37.71875-15.621094 12.492188 0 24.332031 4.269532 33.851562 12.113282 1.132813 1.304687 2.304688 2.589843 3.539063 3.828124 1.226563 1.226563 2.503906 2.386719 3.796875 3.515626 17.246094 20.929687 16.09375 52.03125-3.46875 71.597656zm8.441406-127.082032c0-11.539062 4.492188-22.386718 12.652344-30.546874l14.460938-14.457032.335937 45.726563c.0625 8.277343 6.757813 14.972656 15.035156 15.03125l45.71875.335937-14.457031 14.457032c-8.160156 8.160156-19.007812 12.65625-30.546875 12.65625s-22.386719-4.496094-30.546875-12.65625c-8.160156-8.15625-12.652344-19.003907-12.652344-30.546876zm0 0"/></svg>