<svg height="511pt" viewBox="-17 1 511 511.99975" width="511pt" xmlns="http://www.w3.org/2000/svg"><path d="m125.332031 415.109375-27.941406-27.941406c-5.949219-5.949219-15.589844-5.949219-21.539063 0-5.949218 5.945312-5.949218 15.589843 0 21.539062l27.941407 27.9375c2.972656 2.976563 6.871093 4.464844 10.765625 4.464844 3.898437 0 7.796875-1.488281 10.769531-4.464844 5.949219-5.945312 5.949219-15.589843.003906-21.535156zm0 0"/><path d="m472.40625 78.097656-73.632812-73.636718c-5.945313-5.949219-15.589844-5.949219-21.539063 0l-361.175781 361.179687c-10.035156 10.03125-15.558594 23.371094-15.558594 37.558594s5.523438 27.523437 15.558594 37.558593l55.683594 55.683594c10.03125 10.03125 23.371093 15.558594 37.558593 15.558594s27.527344-5.527344 37.558594-15.558594l61.375-61.375 34.164063-4.359375c7.570312-.964843 13.257812-7.382812 13.304687-15.015625l.195313-33.328125 29.871093-5.058593c7.382813-1.25 12.761719-7.679688 12.6875-15.167969l-.34375-34.511719 31.597657-6.5c7.09375-1.460938 12.179687-7.714844 12.164062-14.957031l-.089844-34.855469 31.886719-6.089844c7.082031-1.351562 12.242187-7.480468 12.371094-14.6875l.675781-37.632812 37.765625-7.566406c7.933594-1.589844 13.242187-9.109376 12.078125-17.117188l-4.253906-29.382812 29.316406-5.664063c6.835938-1.320313 11.90625-7.105469 12.316406-14.058594l2.902344-49.351562c.253906-4.347657-1.359375-8.589844-4.4375-11.664063zm-363.105469 403.441406c-6.050781 0-11.738281-2.355468-16.019531-6.636718l-55.6875-55.683594c-4.277344-4.28125-6.632812-9.96875-6.632812-16.019531 0-6.054688 2.355468-11.742188 6.632812-16.023438l54.289062-54.285156 87.726563 87.726563-54.289063 54.285156c-4.277343 4.28125-9.96875 6.636718-16.019531 6.636718zm334.925781-356.03125-31.960937 6.171876c-7.984375 1.542968-13.347656 9.085937-12.183594 17.136718l4.269531 29.484375-35.636718 7.140625c-7.015625 1.40625-12.105469 7.507813-12.234375 14.660156l-.671875 37.519532-32.140625 6.136718c-7.195313 1.375-12.390625 7.675782-12.375 15l.089843 35.035157-31.695312 6.523437c-7.136719 1.464844-12.234375 7.78125-12.160156 15.070313l.339844 34.050781-29.664063 5.027344c-7.292969 1.234375-12.644531 7.527344-12.6875 14.925781l-.195313 32.789063-18.691406 2.382812-93.210937-93.210938 274.585937-274.585937 58.03125 58.03125zm0 0"/></svg>