<svg height="512pt" viewBox="0 -13 512.0005 512" width="512pt" xmlns="http://www.w3.org/2000/svg"><path d="m433.90625 183.796875c5.886719-5.886719 5.886719-15.433594 0-21.320313l-13.027344-13.027343 13.972656-13.980469 13.03125 13.03125c2.945313 2.945312 6.800782 4.414062 10.660157 4.414062 3.855469 0 7.714843-1.46875 10.660156-4.414062 11.453125-11.453125 17.761719-26.683594 17.761719-42.882812 0-16.199219-6.308594-31.429688-17.761719-42.882813l-45-45c-23.644531-23.644531-62.117187-23.644531-85.765625 0-2.824219 2.828125-4.414062 6.660156-4.414062 10.660156 0 3.996094 1.585937 7.832031 4.414062 10.660157l13.027344 13.023437-13.980469 13.976563-13.023437-13.023438c-5.886719-5.886719-15.433594-5.886719-21.320313 0l-32.222656 32.222656c-2.824219 2.828125-4.414063 6.660156-4.414063 10.660156 0 3.996094 1.585938 7.832032 4.414063 10.660157l13.027343 13.023437-13.980468 13.976563-13.023438-13.023438c-5.886718-5.890625-15.429687-5.886719-21.320312 0-11.453125 11.453125-17.761719 26.683594-17.761719 42.882813 0 12.90625 4.019531 25.195312 11.441406 35.453125l-217.152343 217.15625c-16.199219 16.195312-16.199219 42.546875 0 58.742187 8.097656 8.101563 18.734374 12.148438 29.371093 12.148438s21.273438-4.046875 29.371094-12.148438l217.160156-217.15625c10.542969 7.609375 22.996094 11.421875 35.453125 11.421875 15.53125 0 31.0625-5.910156 42.882813-17.734375 5.886719-5.886718 5.886719-15.433594 0-21.320312l-13.027344-13.03125 13.976563-13.976563 13.027343 13.03125c2.828125 2.824219 6.664063 4.414063 10.660157 4.414063 4 0 7.832031-1.585938 10.660156-4.414063zm-400.4375 269.667969c-4.441406-4.4375-4.441406-11.664063 0-16.101563l216.597656-216.601562 16.105469 16.101562-216.601563 216.601563c-4.441406 4.441406-11.664062 4.441406-16.101562 0zm268.472656-223.46875-45-45c-5.757812-5.761719-8.929687-13.417969-8.929687-21.5625 0-2.773438.367187-5.488282 1.078125-8.09375l82.492187 82.492187c-10.226562 2.789063-21.625.175781-29.640625-7.835937zm-10.65625-75.101563 13.980469-13.976562 40.75 40.75-13.976563 13.980469zm11.613282-58.980469 10.902343-10.902343 88.125 88.125-10.902343 10.902343zm153.917968 9.703126c0 2.773437-.371094 5.488281-1.082031 8.09375l-82.492187-82.492188c10.226562-2.785156 21.628906-.179688 29.640624 7.835938l45 45c5.761719 5.757812 8.933594 13.417968 8.933594 21.5625zm-43.28125 8.53125-13.976562 13.976562-40.753906-40.75 13.980468-13.976562zm0 0"/><path d="m489.820312 270.554688c-10.390624-21.019532-20.617187-38.910157-21.046874-39.660157-2.6875-4.691406-7.679688-7.585937-13.085938-7.585937-5.402344 0-10.394531 2.894531-13.082031 7.585937-.429688.75-10.65625 18.640625-21.046875 39.660157-19.882813 40.210937-22.179688 54.996093-22.179688 62.617187 0 31.050781 25.261719 56.3125 56.3125 56.3125 31.050782 0 56.308594-25.261719 56.308594-56.3125 0-7.621094-2.300781-22.40625-22.179688-62.617187zm-34.132812 88.777343c-14.421875 0-26.15625-11.734375-26.15625-26.160156 0-8.894531 12.023438-36.195313 26.160156-63.324219 14.132813 27.121094 26.15625 54.421875 26.15625 63.324219 0 14.425781-11.734375 26.160156-26.160156 26.160156zm0 0"/></svg>