<svg height="511pt" viewBox="0 -80 511.99982 511" width="511pt" xmlns="http://www.w3.org/2000/svg"><path d="m509.199219 78c-2.839844-3.984375-7.429688-6.355469-12.324219-6.355469h-259.097656v-22.753906c0-26.683594-21.707032-48.390625-48.390625-48.390625h-77.28125c-26.683594 0-48.390625 21.707031-48.390625 48.390625v45.21875c-38.316406 24.902344-63.714844 68.085937-63.714844 117.09375 0 76.953125 62.605469 139.554687 139.554688 139.554687 76.953124 0 139.558593-62.601562 139.558593-139.554687 0-3.820313-.15625-7.648437-.46875-11.457031l184.308594-.003906c6.445313 0 12.179687-4.082032 14.289063-10.167969l33.921874-97.851563c1.605469-4.625.871094-9.734375-1.964843-13.722656zm-369.644531 242.515625c-60.273438 0-109.308594-49.039063-109.308594-109.3125s49.035156-109.3125 109.308594-109.3125h154.679687v67.609375h-33.101563c-4.574218 0-8.902343 2.070312-11.773437 5.632812s-3.972656 8.234376-3 12.707032c1.664063 7.652344 2.507813 15.511718 2.507813 23.363281 0 60.273437-49.035157 109.3125-109.3125 109.3125zm184.925781-151.015625v-67.609375h151.148437l-23.4375 67.609375zm-230.519531-120.609375c0-10.003906 8.140624-18.144531 18.144531-18.144531h77.28125c10.003906 0 18.148437 8.140625 18.148437 18.144531v22.753906h-67.980468c-15.957032 0-31.296876 2.703125-45.59375 7.660157zm0 0"/><path d="m139.554688 146.683594c-35.574219 0-64.519532 28.945312-64.519532 64.519531s28.945313 64.519531 64.519532 64.519531c35.578124 0 64.523437-28.945312 64.523437-64.519531-.003906-35.574219-28.945313-64.519531-64.523437-64.519531zm0 98.792968c-18.898438 0-34.273438-15.375-34.273438-34.273437s15.375-34.273437 34.273438-34.273437c18.902343 0 34.277343 15.375 34.277343 34.273437s-15.378906 34.273437-34.277343 34.273437zm0 0"/></svg>