<svg height="512pt" viewBox="-44 0 512 512" width="512pt" xmlns="http://www.w3.org/2000/svg"><path d="m424.601562 186.609375c0-35.148437-23.414062-71.550781-64.238281-99.863281-37.621093-26.09375-84.394531-41.550782-133.082031-44.191406v-27.574219c0-8.273438-6.707031-14.980469-14.980469-14.980469-8.273437 0-14.980469 6.707031-14.980469 14.980469v27.574219c-48.691406 2.640624-95.460937 18.097656-133.082031 44.191406-40.824219 28.3125-64.238281 64.714844-64.238281 99.863281 0 17.84375 6.160156 40.78125 30.859375 60.96875-2.457031 14.425781-3.730469 29.246094-3.730469 44.296875 0 69.5625 31.460938 129.6875 90.972656 173.875 44.195313 32.816406 88.011719 45.195312 89.855469 45.707031 1.304688.359375 2.648438.542969 4 .542969h.6875c1.351563 0 2.699219-.183594 4-.542969 1.84375-.511719 45.660157-12.890625 89.855469-45.707031 59.511719-44.1875 90.972656-104.3125 90.972656-173.875 0-15.050781-1.273437-29.871094-3.730468-44.296875 24.695312-20.1875 30.859374-43.125 30.859374-60.96875zm-394.640624 0c0-12.578125 4.941406-26.011719 13.996093-39.101563l22.195313 19.777344c-13.726563 12.230469-25.828125 23.015625-34.640625 30.867188-1.027344-3.714844-1.550781-7.5625-1.550781-11.542969zm363.128906 11.546875-34.644532-30.871094 22.199219-19.777344c9.050781 13.09375 13.992188 26.523438 13.992188 39.105469 0 3.980469-.523438 7.824219-1.546875 11.542969zm-67.382813 50.113281-29.074219-25.90625 39.292969-35.011719 40.25 35.863282c-7.683593 6.613281-17.75 12.570312-30.1875 17.828125-6.238281 2.640625-13.023437 5.050781-20.28125 7.226562zm-247.097656-7.226562c-12.4375-5.257813-22.5-11.214844-30.1875-17.828125l40.25-35.863282 39.296875 35.011719-29.074219 25.90625c-7.261719-2.175781-14.046875-4.585937-20.285156-7.226562zm30.414063-145.714844 18.945312 16.878906c-12.953125 11.539063-26.40625 23.527344-39.296875 35.015625l-24.78125-22.082031c5.277344-4.769531 11.09375-9.386719 17.421875-13.773437 8.617188-5.976563 17.914062-11.335938 27.710938-16.039063zm234.265624 16.035156c6.324219 4.390625 12.144532 9.007813 17.417969 13.777344l-24.777343 22.082031-39.296876-35.015625 18.945313-16.878906c9.796875 4.703125 19.09375 10.0625 27.710937 16.035156zm-91.691406.84375-39.296875 35.015625-39.296875-35.015625 39.296875-35.011719zm-101.113281 20.0625 39.296875 35.015625-39.296875 35.015625-39.296875-35.015625zm61.816406 55.082031 39.296875 35.011719-39.296875 35.015625-39.296875-35.015625zm22.515625-20.066406 39.296875-35.011718 39.296875 35.011718-39.296875 35.015625zm39.296875-75.140625-17.949219-15.996093c9.554688 1.761718 18.960938 4.085937 28.125 6.929687zm-123.628906-.003906-10.171875-9.0625c9.164062-2.84375 18.570312-5.167969 28.121094-6.929687-5.554688 4.953124-11.589844 10.328124-17.949219 15.992187zm0 150.289063 20.710937 18.453124c-12.75-1.007812-24.949218-2.492187-36.453124-4.425781zm123.628906 0 15.742188 14.027343c-11.5 1.933594-23.699219 3.417969-36.453125 4.425781zm93.394531 49.445312c0 60.253906-26.285156 110.472656-78.125 149.265625-32.832031 24.566406-66.238281 36.746094-77.097656 40.304687-10.765625-3.507812-43.570312-15.429687-76.320312-39.75-52.335938-38.855468-78.875-89.265624-78.875-149.820312 0-9.15625.542968-18.160156 1.566406-26.976562 2.648438 1.273437 5.402344 2.523437 8.28125 3.738281 36.789062 15.5625 87.054688 23.785156 145.363281 23.785156 58.308594 0 108.574219-8.222656 145.359375-23.785156 2.878906-1.214844 5.636719-2.464844 8.28125-3.738281 1.023438 8.816406 1.566406 17.820312 1.566406 26.976562zm0 0"/></svg>