<svg height="512pt" viewBox="0 -31 512 512" width="512pt" xmlns="http://www.w3.org/2000/svg"><path d="m496.925781 0h-481.851562c-8.324219 0-15.074219 6.75-15.074219 15.074219v98.433593c0 8.324219 6.75 15.074219 15.074219 15.074219h150.472656v56.3125c0 8.328125 6.75 15.074219 15.074219 15.074219h150.757812c8.324219 0 15.074219-6.746094 15.074219-15.074219v-56.3125h150.472656c8.324219 0 15.074219-6.75 15.074219-15.074219v-98.433593c0-8.324219-6.75-15.074219-15.074219-15.074219zm-301.230469 128.582031h19.636719v41.238281h-19.636719zm49.789063 41.238281v-41.238281h21.03125v41.238281zm70.820313 0h-19.636719v-41.238281h19.636719zm165.546874-71.386718h-451.703124v-68.285156h451.703124zm0 0"/><path d="m256 238.128906c-5.40625 0-10.394531 2.894532-13.082031 7.585938-9.488281 16.570312-56.832031 100.90625-56.832031 133.550781 0 38.550781 31.363281 69.914063 69.914062 69.914063s69.914062-31.363282 69.914062-69.914063c0-32.644531-47.339843-116.980469-56.832031-133.550781-2.6875-4.691406-7.675781-7.585938-13.082031-7.585938zm0 180.898438c-21.925781 0-39.761719-17.835938-39.761719-39.761719 0-14.699219 20.359375-58.402344 39.761719-94.839844 19.402344 36.429688 39.761719 80.128907 39.761719 94.839844.003906 21.925781-17.835938 39.761719-39.761719 39.761719zm0 0"/></svg>