<svg height="512pt" viewBox="-57 0 512 512" width="512pt" xmlns="http://www.w3.org/2000/svg"><path d="m276.632812 104.46875c-11.476562 0-22.589843 1.59375-33.125 4.566406-6.542968-61.207031-58.492187-109.035156-121.40625-109.035156-67.324218 0-122.101562 54.773438-122.101562 122.101562v374.660157c0 8.414062 6.824219 15.238281 15.238281 15.238281h368.261719c8.414062 0 15.234375-6.824219 15.234375-15.238281v-270.191407c0-67.328124-54.773437-122.101562-122.101563-122.101562zm90.351563 106.863281h-122.777344v-70.457031c10.085938-3.828125 21.015625-5.929688 32.425781-5.929688 45.332032 0 83.074219 33.089844 90.351563 76.386719zm-190.796875 270.191407v-344.183594h37.542969v344.183594zm-77.691406 0v-23.046876h47.214844v23.046876zm47.214844-160.570313h-47.214844v-23.046875h47.214844zm0-53.519531h-47.214844v-23.046875h47.214844zm-47.214844 83.996094h47.214844v23.046874h-47.214844zm47.214844-137.519532h-47.214844v-23.046875h47.214844zm-47.214844 191.042969h47.214844v23.046875h-47.214844zm47.214844-244.566406h-47.214844v-23.046875h47.214844zm-113.960938-53.523438c7.277344-43.292969 45.019531-76.386719 90.351562-76.386719 45.332032 0 83.074219 33.09375 90.355469 76.386719zm-1.273438 30.476563h37.542969v344.183594h-37.542969zm213.730469 344.183594v-239.714844h124.054688v239.714844zm0 0"/></svg>