<svg height="512pt" viewBox="-33 0 512 512.00076" width="512pt" xmlns="http://www.w3.org/2000/svg"><path d="m380.726562 131.273438c-38.4375-38.4375-88.4375-61.105469-142.152343-64.78125 1.375-15.273438 7.976562-29.453126 18.949219-40.429688 5.964843-5.960938 5.964843-15.628906 0-21.589844-5.960938-5.964844-15.628907-5.964844-21.59375 0-16.738282 16.738282-26.542969 38.5625-27.980469 61.988282-53.898438 3.578124-104.078125 26.265624-142.625 64.8125-42.125 42.125-65.324219 98.128906-65.324219 157.703124 0 59.570313 23.199219 115.578126 65.324219 157.703126 42.121093 42.121093 98.128906 65.320312 157.699219 65.320312 59.574218 0 115.578124-23.199219 157.703124-65.320312 42.125-42.125 65.324219-98.132813 65.324219-157.703126 0-59.574218-23.199219-115.578124-65.324219-157.703124zm-203.953124-19.484376c-3.105469 7.777344-5.996094 16.515626-8.660157 26.253907-11.082031 40.515625-17.1875 94.117187-17.1875 150.933593 0 56.816407 6.105469 110.417969 17.1875 150.933594 2.664063 9.734375 5.554688 18.476563 8.660157 26.253906-13.167969-9.085937-25.386719-22.066406-36.085938-38.582031-23.835938-36.796875-36.960938-86.023437-36.960938-138.605469 0-52.582031 13.125-101.808593 36.960938-138.605468 10.699219-16.515625 22.917969-29.5 36.085938-38.582032zm20.792968 320.0625c-10.382812-37.964843-16.101562-88.703124-16.101562-142.875 0-54.171874 5.71875-104.914062 16.101562-142.878906 11.15625-40.78125 23.101563-49.609375 25.457032-49.609375 2.359374 0 14.300781 8.828125 25.457031 49.609375 10.386719 37.964844 16.105469 88.707032 16.105469 142.878906 0 54.171876-5.71875 104.910157-16.105469 142.875-11.15625 40.785157-23.097657 49.613282-25.457031 49.613282-2.355469 0-14.300782-8.828125-25.457032-49.613282zm71.710938 34.3125c3.105468-7.777343 5.996094-16.519531 8.660156-26.253906 11.082031-40.515625 17.183594-94.117187 17.183594-150.933594 0-56.816406-6.101563-110.421874-17.183594-150.933593-2.664062-9.734375-5.554688-18.476563-8.660156-26.253907 13.164062 9.082032 25.386718 22.066407 36.085937 38.582032 23.832031 36.796875 36.960938 86.023437 36.960938 138.605468 0 52.582032-13.128907 101.808594-36.960938 138.605469-10.699219 16.515625-22.921875 29.496094-36.085937 38.582031zm-238.738282-177.1875c0-68.289062 35.75-128.382812 89.515626-162.5625-1.699219 2.390626-3.367188 4.835938-5 7.355469-26.996094 41.683594-41.867188 96.804688-41.867188 155.207031 0 58.402344 14.871094 113.523438 41.867188 155.207032 1.632812 2.519531 3.300781 4.964844 5 7.351562-53.765626-34.175781-89.515626-94.265625-89.515626-162.558594zm295.457032 162.558594c1.695312-2.386718 3.367187-4.835937 4.996094-7.355468 27-41.679688 41.867187-96.800782 41.867187-155.203126 0-58.40625-14.867187-113.523437-41.867187-155.207031-1.628907-2.519531-3.296876-4.964843-4.996094-7.355469 53.765625 34.179688 89.515625 94.269532 89.515625 162.5625 0 68.289063-35.75 128.382813-89.515625 162.558594zm0 0"/></svg>