<svg height="511pt" viewBox="-40 1 511 511.99898" width="511pt" xmlns="http://www.w3.org/2000/svg"><path d="m416.339844 95.746094h-27.867188l-47.363281-45.449219c-33.800781-32.433594-78.210937-50.296875-125.054687-50.296875s-91.257813 17.863281-125.054688 50.296875l-47.363281 45.445313h-27.867188c-8.433593 0-15.269531 6.835937-15.269531 15.269531v72.886719c0 8.433593 6.835938 15.269531 15.269531 15.269531h18.738281v207.652343c0 8.507813-3.101562 16.753907-8.726562 23.21875-9.992188 11.476563-14.882812 23.867188-14.140625 35.824219 1.535156 24.726563 21.335937 44.527344 46.0625 46.0625.789063.046875 1.582031.074219 2.378906.074219 11.214844-.003906 22.726563-4.882812 33.445313-14.214844 6.464844-5.628906 14.710937-8.726562 23.214844-8.726562h198.621093c8.507813 0 16.75 3.097656 23.214844 8.730468 11.480469 9.988282 23.871094 14.871094 35.824219 14.136719 24.726562-1.535156 44.527344-21.335937 46.066406-46.0625.742188-11.957031-4.148438-24.347656-14.140625-35.824219-5.628906-6.464843-8.730469-14.710937-8.730469-23.21875v-207.652343h18.742188c8.429687 0 15.265625-6.835938 15.265625-15.269531v-72.886719c0-8.433594-6.835938-15.265625-15.265625-15.265625zm-304.199219-23.417969c58.269531-55.914063 149.558594-55.914063 207.824219 0l24.402344 23.417969h-256.628907zm271.152344 377.761719c4.550781 5.226562 6.925781 10.15625 6.695312 13.882812-.574219 9.226563-8.25 16.902344-17.480469 17.476563-3.734374.230469-8.65625-2.144531-13.878906-6.691407-12.023437-10.46875-27.390625-16.234374-43.265625-16.234374h-198.621093c-15.875 0-31.242188 5.765624-43.265626 16.230468-5.222656 4.550782-10.160156 6.945313-13.882812 6.695313-9.226562-.574219-16.902344-8.25-17.476562-17.476563-.230469-3.726562 2.144531-8.65625 6.695312-13.882812 10.464844-12.023438 16.230469-27.390625 16.230469-43.265625v-207.65625h302.019531v207.65625c0 15.875 5.765625 31.238281 16.230469 43.265625zm17.777343-281.460938h-370.035156v-42.347656h370.035156zm0 0"/><path d="m261.347656 275.964844c-18 0-34.1875 7.894531-45.289062 20.398437-11.101563-12.503906-27.292969-20.398437-45.289063-20.398437-8.433593 0-15.269531 6.835937-15.269531 15.269531s6.835938 15.269531 15.269531 15.269531c16.554688 0 30.019531 13.464844 30.019531 30.019532v19.34375c0 8.429687 6.835938 15.265624 15.269532 15.265624s15.269531-6.835937 15.269531-15.265624v-19.34375c0-16.554688 13.464844-30.019532 30.019531-30.019532 8.433594 0 15.269532-6.835937 15.269532-15.269531s-6.835938-15.269531-15.269532-15.269531zm0 0"/></svg>