<svg height="512pt" viewBox="-3 0 512 512" width="512pt" xmlns="http://www.w3.org/2000/svg"><path d="m504.90625 350.898438c-.484375-66.714844-26.695312-129.355469-73.921875-176.582032-26.105469-26.105468-56.929687-45.773437-90.539063-58.238281l8.984376-30.265625c1.613281-5.445312.085937-11.339844-3.976563-15.3125-4.058594-3.972656-9.984375-5.371094-15.394531-3.636719l-62.226563 19.957031v-9.867187c0-21.613281 14.886719-39.8125 34.945313-44.894531 3.636718-.921875 7.445312-1.414063 11.367187-1.414063 8.460938 0 15.320313-6.859375 15.320313-15.324219 0-8.460937-6.859375-15.320312-15.320313-15.320312-42.433593 0-76.957031 34.523438-76.957031 76.953125v9.867187l-62.222656-19.957031c-5.410156-1.738281-11.332032-.335937-15.394532 3.636719-4.058593 3.972656-5.589843 9.867188-3.972656 15.3125l8.980469 30.265625c-33.613281 12.464844-64.4375 32.132813-90.542969 58.238281-47.226562 47.226563-73.4375 109.871094-73.917968 176.582032-.0781255.621093-.117188 1.25-.117188 1.890624 0 87.789063 71.421875 159.210938 159.210938 159.210938 33.589843 0 66.265624-10.648438 93.300781-30.207031 27.03125 19.554687 59.710937 30.207031 93.300781 30.207031 87.789062 0 159.210938-71.421875 159.210938-159.210938 0-.640624-.039063-1.269531-.117188-1.890624zm-311.679688-245.996094 54.605469 17.511718c3.042969.976563 6.316407.976563 9.359375 0l54.605469-17.511718-5.535156 18.652344c-1.042969 3.515624-.792969 7.289062.710937 10.632812l11.226563 25.019531-27.328125-12.472656c-6.882813-3.140625-15.027344-.785156-19.175782 5.542969l-19.179687 29.269531-19.183594-29.273437c-2.910156-4.441407-7.789062-6.925782-12.824219-6.925782-2.136718 0-4.300781.449219-6.351562 1.386719l-27.332031 12.472656 11.230469-25.019531c1.5-3.34375 1.753906-7.117188.707031-10.632812zm152.585938 376.453125c-30.542969 0-60.148438-10.902344-83.359375-30.695313-2.863281-2.441406-6.402344-3.664062-9.941406-3.664062-3.539063 0-7.078125 1.222656-9.941407 3.664062-23.214843 19.792969-52.820312 30.695313-83.359374 30.695313-70.3125 0-127.621094-56.734375-128.554688-126.832031.0625-.566407.097656-1.148438.097656-1.734376 0-87.679687 51.15625-163.636718 125.183594-199.597656l-13.714844 30.5625c-2.613281 5.816406-1.347656 12.644532 3.175782 17.140625 4.523437 4.496094 11.363281 5.71875 17.164062 3.070313l52.347656-23.894532 24.789063 37.824219c2.832031 4.320313 7.648437 6.925781 12.816406 6.925781 5.164063 0 9.984375-2.605468 12.816406-6.925781l24.785157-37.824219 52.351562 23.894532c5.800781 2.648437 12.632812 1.425781 17.160156-3.070313 4.523438-4.496093 5.789063-11.324219 3.175782-17.144531l-13.714844-30.558594c74.027344 35.964844 125.179687 111.917969 125.179687 199.597656 0 .585938.035157 1.164063.097657 1.734376-.933594 70.097656-58.246094 126.832031-128.554688 126.832031zm0 0"/></svg>