<svg height="512pt" viewBox="-9 0 512 512.00101" width="512pt" xmlns="http://www.w3.org/2000/svg"><path d="m251.265625 117.894531c-4.167969 7.210938-1.695313 16.433594 5.515625 20.597657 2.375 1.371093 4.96875 2.023437 7.527344 2.023437 5.210937 0 10.277344-2.707031 13.070312-7.542969l10.214844-17.691406c7.085938-12.269531 7.085938-27.515625 0-39.785156l-10.214844-17.695313c-4.164062-7.210937-13.382812-9.683593-20.597656-5.519531-7.210938 4.164062-9.683594 13.386719-5.515625 20.597656l10.210937 17.695313c1.714844 2.96875 1.714844 6.660156 0 9.628906zm0 0"/><path d="m261.476562 251.1875c1.714844 2.96875 1.714844 6.65625 0 9.625l-10.210937 17.695312c-4.167969 7.210938-1.695313 16.433594 5.515625 20.597657 2.375 1.371093 4.96875 2.023437 7.527344 2.023437 5.210937 0 10.277344-2.707031 13.070312-7.542968l10.214844-17.691407c7.085938-12.273437 7.085938-27.515625 0-39.789062l-10.214844-17.691407c-4.164062-7.214843-13.382812-9.683593-20.597656-5.519531-7.210938 4.164063-9.683594 13.386719-5.515625 20.597657zm0 0"/><path d="m287.59375 396.71875-10.214844-17.691406c-4.164062-7.210938-13.382812-9.683594-20.597656-5.519532-7.210938 4.164063-9.683594 13.386719-5.515625 20.597657l10.210937 17.695312c1.714844 2.96875 1.714844 6.65625 0 9.628907l-10.210937 17.691406c-4.167969 7.210937-1.695313 16.433594 5.515625 20.597656 2.375 1.371094 4.96875 2.023438 7.527344 2.023438 5.210937 0 10.277344-2.707032 13.070312-7.542969l10.214844-17.691407c7.085938-12.269531 7.085938-27.519531 0-39.789062zm0 0"/><path d="m400.457031 170.878906c1.714844 2.96875 1.714844 6.660156 0 9.628906l-10.210937 17.691407c-4.167969 7.214843-1.695313 16.4375 5.515625 20.597656 2.375 1.371094 4.96875 2.023437 7.527343 2.023437 5.210938 0 10.28125-2.703124 13.070313-7.542968l10.214844-17.691406c7.085937-12.269532 7.085937-27.515626 0-39.785157l-10.214844-17.695312c-4.164063-7.210938-13.386719-9.683594-20.597656-5.515625-7.210938 4.164062-9.683594 13.382812-5.515625 20.597656zm0 0"/><path d="m449.734375 256 42.011719-72.765625c2.695312-4.667969 2.695312-10.414063 0-15.082031l-46.367188-80.308594c-2.691406-4.664062-7.667968-7.539062-13.054687-7.539062h-83.914063l-42.011718-72.765626c-2.695313-4.664062-7.671876-7.539062-13.058594-7.539062h-92.730469c-5.386719 0-10.367187 2.875-13.058594 7.539062l-42.011719 72.765626h-84.09375c-5.386718 0-10.363281 2.875-13.058593 7.542968l-46.367188 80.308594c-2.691406 4.664062-2.691406 10.414062 0 15.078125l42.015625 72.765625-42.015625 72.765625c-2.691406 4.667969-2.691406 10.414063 0 15.082031l46.367188 80.308594c2.695312 4.664062 7.671875 7.539062 13.058593 7.539062h84.09375l42.011719 72.765626c2.695313 4.667968 7.671875 7.539062 13.058594 7.539062h92.730469c5.386718 0 10.367187-2.871094 13.058594-7.539062l42.011718-72.765626h83.914063c5.386719 0 10.363281-2.875 13.054687-7.539062l46.367188-80.308594c2.695312-4.667968 2.695312-10.414062 0-15.082031zm11.542969-80.304688-37.660156 65.222657h-75.207032l-37.65625-65.222657 37.660156-65.230468h75.203126zm-139.101563 80.304688-37.65625 65.226562h-75.207031l-37.660156-65.226562 37.660156-65.226562h75.207031zm-112.859375-225.84375h75.320313l37.601562 65.128906-37.71875 65.328125h-75.207031l-37.65625-65.226562zm-139.164062 80.308594h75.320312l37.660156 65.230468-37.65625 65.226563h-75.328124l-37.65625-65.226563zm-37.660156 225.839844 37.65625-65.222657h75.328124l37.65625 65.222657-37.660156 65.230468h-75.320312zm252.144531 145.539062h-75.320313l-37.664062-65.230469 37.660156-65.226562h75.207031l37.714844 65.328125zm138.980469-80.308594h-75.203126l-37.660156-65.230468 37.65625-65.222657h75.207032l37.660156 65.222657zm0 0"/><path d="m416.359375 298.722656c-4.164063-7.214844-13.386719-9.6875-20.597656-5.519531-7.210938 4.164063-9.683594 13.382813-5.515625 20.597656l10.210937 17.691407c1.714844 2.96875 1.714844 6.660156 0 9.628906l-10.210937 17.691406c-4.167969 7.214844-1.695313 16.4375 5.515625 20.597656 2.375 1.371094 4.96875 2.023438 7.527343 2.023438 5.210938 0 10.28125-2.703125 13.070313-7.539063l10.214844-17.695312c7.085937-12.269531 7.085937-27.515625 0-39.785157zm0 0"/><path d="m122.3125 170.878906c1.714844 2.96875 1.714844 6.660156 0 9.628906l-10.210938 17.691407c-4.164062 7.214843-1.695312 16.4375 5.519532 20.597656 2.375 1.371094 4.964844 2.023437 7.523437 2.023437 5.210938 0 10.28125-2.703124 13.074219-7.542968l10.210938-17.691406c7.085937-12.269532 7.085937-27.511719.003906-39.785157l-10.214844-17.695312c-4.167969-7.210938-13.386719-9.683594-20.597656-5.515625-7.214844 4.164062-9.683594 13.382812-5.519532 20.597656zm0 0"/><path d="m148.433594 316.414062-10.214844-17.691406c-4.164062-7.214844-13.386719-9.6875-20.597656-5.519531-7.210938 4.164063-9.683594 13.382813-5.519532 20.597656l10.214844 17.691407c1.714844 2.96875 1.710938 6.660156 0 9.628906l-10.214844 17.695312c-4.164062 7.210938-1.691406 16.433594 5.519532 20.59375 2.375 1.371094 4.964844 2.023438 7.523437 2.023438 5.210938 0 10.28125-2.703125 13.074219-7.542969l10.214844-17.691406c7.082031-12.269531 7.082031-27.511719 0-39.785157zm0 0"/></svg>