<svg height="512pt" viewBox="0 -2 512.00101 512" width="512pt" xmlns="http://www.w3.org/2000/svg"><path d="m480.980469 206.902344c-21.449219-35.558594-50.785157-55.144532-82.609375-55.144532-24.84375 0-48.171875 11.9375-67.414063 34.09375-17.523437-18.042968-37.996093-29.304687-59.851562-32.863281-32.601563-20.1875-43.316407-62.957031-23.773438-96.175781 7.265625-12.359375 18.914063-21.144531 32.792969-24.742188 13.875-3.597656 28.328125-1.578124 40.6875 5.691407 9.1875 5.40625 15.722656 14.066406 18.394531 24.382812 2.675781 10.320313 1.171875 21.0625-4.230469 30.25-8.082031 13.734375-25.824218 18.335938-39.558593 10.257813-9.546875-5.617188-12.742188-17.953125-7.128907-27.496094 4.246094-7.21875 1.835938-16.507812-5.378906-20.75-7.21875-4.246094-16.507812-1.835938-20.75 5.378906-14.09375 23.953125-6.066406 54.90625 17.886719 68.996094 28.140625 16.554688 64.503906 7.128906 81.058594-21.015625 9.511719-16.167969 12.15625-35.070313 7.449219-53.226563-4.707032-18.160156-16.207032-33.394531-32.371094-42.90625-19.339844-11.375-41.949219-14.539062-63.667969-8.910156-21.714844 5.632813-39.941406 19.382813-51.316406 38.71875-13.707031 23.300782-17.519531 50.542969-10.734375 76.707032 3.605468 13.910156 10 26.609374 18.675781 37.535156-17.4375 5.175781-33.757813 15.398437-48.097656 30.167968-19.242188-22.15625-42.574219-34.09375-67.417969-34.09375-31.820312 0-61.15625 19.585938-82.605469 55.144532-20.003906 33.164062-31.019531 76.941406-31.019531 123.269531 0 46.324219 11.015625 90.101563 31.019531 123.265625 21.449219 35.5625 50.785157 55.144531 82.609375 55.144531 24.84375 0 48.171875-11.9375 67.414063-34.09375 21.503906 22.148438 47.457031 34.09375 74.957031 34.09375s53.453125-11.945312 74.957031-34.09375c19.242188 22.15625 42.574219 34.09375 67.417969 34.09375 31.820312 0 61.15625-19.582031 82.605469-55.144531 20.003906-33.164062 31.019531-76.941406 31.019531-123.265625 0-46.328125-11.015625-90.105469-31.019531-123.269531zm-224.980469 271.363281c-24.671875 0-48.273438-14.636719-66.457031-41.214844-19.386719-28.339843-30.0625-66.296875-30.0625-106.878906 0-40.585937 10.675781-78.542969 30.0625-106.882813 18.183593-26.578124 41.785156-41.214843 66.457031-41.214843s48.273438 14.636719 66.457031 41.214843c19.382813 28.339844 30.0625 66.296876 30.0625 106.882813 0 40.582031-10.679687 78.539063-30.0625 106.878906-18.183593 26.578125-41.785156 41.214844-66.457031 41.214844zm-142.371094 0c-45.160156 0-83.3125-67.820313-83.3125-148.09375 0-80.277344 38.152344-148.097656 83.3125-148.097656 17.785156 0 34.484375 10.527343 48.195313 28.1875-21.085938 32.800781-32.65625 75.15625-32.65625 119.910156s11.570312 87.105469 32.65625 119.910156c-13.710938 17.660157-30.410157 28.183594-48.195313 28.183594zm284.742188 0c-17.785156 0-34.484375-10.523437-48.195313-28.1875 21.085938-32.800781 32.65625-75.15625 32.65625-119.910156 0-44.75-11.570312-87.105469-32.65625-119.910157 13.710938-17.65625 30.410157-28.1875 48.195313-28.1875 45.160156 0 83.3125 67.820313 83.3125 148.097657 0 80.277343-38.152344 148.097656-83.3125 148.097656zm0 0"/></svg>