<svg height="511pt" viewBox="-69 1 511 511.99937" width="511pt" xmlns="http://www.w3.org/2000/svg"><path d="m360.988281 114.324219c-2.265625-.46875-55.933593-11.082031-95.703125 16.679687-31.976562 22.320313-43.757812 61.628906-47.324218 77.367188l-15.890626 11.089844v-44.171876c10.859376-11.933593 36.34375-44.089843 36.34375-83.089843 0-48.496094-39.425781-86.429688-41.105468-88.019531-5.875-5.574219-15.085938-5.570313-20.964844 0-1.679688 1.589843-41.101562 39.523437-41.101562 88.019531 0 39.007812 25.492187 71.171875 36.351562 83.097656v44.164063l-15.890625-11.089844c-3.570313-15.738282-15.351563-55.042969-47.328125-77.367188-39.765625-27.761718-93.4375-17.144531-95.703125-16.679687-7.933594 1.628906-13.207031 9.183593-12 17.191406.34375 2.285156 8.878906 56.328125 48.644531 84.089844 22.269532 15.542969 48.890625 19.054687 68.410156 19.054687 8.515626 0 15.675782-.667968 20.539063-1.296875l33.328125 23.265625v40.003906h-79.238281c-8.417969 0-15.238281 6.824219-15.238281 15.238282v57.046875c0 8.414062 6.820312 15.238281 15.238281 15.238281h5.253906l14.605469 114.53125c.96875 7.609375 7.445312 13.3125 15.113281 13.3125h119.003906c7.671875 0 14.144531-5.703125 15.117188-13.3125l14.605469-114.53125h5.253906c8.414062 0 15.238281-6.824219 15.238281-15.238281v-57.046875c0-8.414063-6.824219-15.238282-15.238281-15.238282h-79.238282v-40.003906l33.328126-23.265625c4.859374.628907 12.019531 1.296875 20.535156 1.296875 19.519531 0 46.144531-3.511718 68.410156-19.054687 39.769531-27.761719 48.304688-81.804688 48.648438-84.089844 1.203124-8.007813-4.066407-15.5625-12.003907-17.191406zm-294.226562 76.292969c-17.8125-12.433594-27.300781-33.566407-31.976563-48.039063 15.242188-.582031 38.429688 1.050781 56.144532 13.417969 17.8125 12.433594 27.300781 33.5625 31.976562 48.039062-15.242188.574219-38.429688-1.054687-56.144531-13.417968zm166.152343 290.90625h-92.167968l-12.414063-97.367188h116.996094zm33.15625-127.84375h-158.476562v-26.570313h158.476562zm-79.242187-315.230469c9.203125 12.125 21.113281 32.011719 21.113281 53.75 0 21.722656-11.894531 41.601562-21.089844 53.71875-9.199218-12.164063-21.132812-32.109375-21.132812-53.71875-.003906-21.738281 11.910156-41.632813 21.109375-53.75zm120.070313 152.167969c-17.8125 12.433593-40.914063 14.054687-56.117188 13.457031 4.710938-14.503907 14.234375-35.710938 31.949219-48.078125 17.8125-12.4375 40.917969-14.058594 56.117187-13.460938-4.707031 14.507813-14.230468 35.710938-31.949218 48.082032zm0 0"/></svg>