<svg height="512pt" viewBox="0 -25 512 512" width="512pt" xmlns="http://www.w3.org/2000/svg"><path d="m418.523438 111.160156c-7.988282 0-15.957032 1.039063-23.664063 3.054688-12.710937-65.464844-70.210937-114.214844-138.859375-114.214844s-126.148438 48.75-138.859375 114.214844c-7.707031-2.019532-15.675781-3.054688-23.664063-3.054688-51.542968 0-93.476562 41.933594-93.476562 93.476563s41.933594 93.476562 93.476562 93.476562h325.046876c51.542968 0 93.476562-41.933593 93.476562-93.476562s-41.933594-93.476563-93.476562-93.476563zm0 156.636719h-325.046876c-34.828124 0-63.160156-28.335937-63.160156-63.160156 0-34.828125 28.332032-63.160157 63.160156-63.160157 10.332032 0 20.191407 2.425782 29.308594 7.214844 4.582032 2.410156 10.078125 2.3125 14.570313-.257812 4.496093-2.570313 7.367187-7.257813 7.617187-12.425782 2.867188-59.265624 51.636719-105.691406 111.023438-105.691406 59.390625 0 108.160156 46.425782 111.027344 105.691406.25 5.167969 3.121093 9.855469 7.617187 12.425782 4.492187 2.570312 9.988281 2.667968 14.570313.257812 9.117187-4.785156 18.976562-7.214844 29.3125-7.214844 34.824218 0 63.15625 28.332032 63.15625 63.160157 0 34.824219-28.328126 63.160156-63.15625 63.160156zm0 0"/><path d="m111.996094 321.433594c-8.371094 0-15.160156 6.789062-15.160156 15.160156v45.628906c0 8.371094 6.789062 15.15625 15.160156 15.15625s15.15625-6.785156 15.15625-15.15625v-45.628906c0-8.371094-6.785156-15.160156-15.15625-15.160156zm0 0"/><path d="m207.996094 321.433594c-8.371094 0-15.15625 6.789062-15.15625 15.160156v45.628906c0 8.371094 6.785156 15.15625 15.15625 15.15625 8.375 0 15.160156-6.785156 15.160156-15.15625v-45.628906c0-8.371094-6.785156-15.160156-15.160156-15.160156zm0 0"/><path d="m304 321.433594c-8.371094 0-15.160156 6.789062-15.160156 15.160156v45.628906c0 8.371094 6.789062 15.15625 15.160156 15.15625s15.160156-6.785156 15.160156-15.15625v-45.628906c0-8.371094-6.789062-15.160156-15.160156-15.160156zm0 0"/><path d="m159.996094 386.109375c-8.371094 0-15.15625 6.789063-15.15625 15.160156v45.628907c0 8.371093 6.785156 15.15625 15.15625 15.15625s15.160156-6.785157 15.160156-15.15625v-45.628907c0-8.371093-6.789062-15.160156-15.160156-15.160156zm0 0"/><path d="m256 386.109375c-8.371094 0-15.160156 6.789063-15.160156 15.160156v45.628907c0 8.371093 6.789062 15.15625 15.160156 15.15625s15.15625-6.785157 15.15625-15.15625v-45.628907c0-8.371093-6.785156-15.160156-15.15625-15.160156zm0 0"/><path d="m352 386.109375c-8.371094 0-15.15625 6.789063-15.15625 15.160156v45.628907c0 8.371093 6.785156 15.15625 15.15625 15.15625s15.160156-6.785157 15.160156-15.15625v-45.628907c0-8.371093-6.789062-15.160156-15.160156-15.160156zm0 0"/><path d="m400.003906 321.433594c-8.375 0-15.160156 6.789062-15.160156 15.160156v45.628906c0 8.371094 6.785156 15.15625 15.160156 15.15625 8.371094 0 15.15625-6.785156 15.15625-15.15625v-45.628906c0-8.371094-6.785156-15.160156-15.15625-15.160156zm0 0"/></svg>