<svg height="511pt" viewBox="0 -25 511.99973 511" width="511pt" xmlns="http://www.w3.org/2000/svg"><path d="m479.980469 220.195312-111.59375-65.785156v-10.535156c0-40.132812-21.148438-75.414062-52.882813-95.300781v-32.945313c0-8.355468-6.773437-15.128906-15.128906-15.128906s-15.128906 6.773438-15.128906 15.128906v19.726563c-9.332032-2.515625-19.132813-3.867188-29.246094-3.867188s-19.917969 1.347657-29.246094 3.867188v-19.726563c0-8.355468-6.773437-15.128906-15.128906-15.128906s-15.128906 6.773438-15.128906 15.128906v32.949219c-31.734375 19.882813-52.882813 55.164063-52.882813 95.296875v10.535156l-111.59375 65.785156c-30.917969 18.226563-41.242187 58.207032-23.015625 89.125 8.828125 14.976563 22.960938 25.621094 39.792969 29.96875 5.429687 1.398438 10.925781 2.09375 16.390625 2.09375 11.476562 0 22.792969-3.0625 32.941406-9.042968l45.546875-26.851563c1.734375 55.230469 43.507813 100.53125 97.191407 107.789063v33.417968c0 8.355469 6.773437 15.128907 15.128906 15.128907 8.355468 0 15.128906-6.773438 15.128906-15.128907v-33.417968c53.6875-7.253906 95.464844-52.558594 97.199219-107.789063l45.546875 26.851563c10.148437 5.980468 21.464844 9.042968 32.941406 9.042968 5.464844 0 10.960938-.695312 16.390625-2.09375 16.832031-4.347656 30.964844-14.992187 39.792969-29.96875 18.226562-30.917968 7.898437-70.898437-23.015625-89.125zm-223.980469 163.847657c-41.046875 0-75.15625-30.265625-81.183594-69.652344h162.363282c-6.027344 39.386719-40.136719 69.652344-81.179688 69.652344zm0-322.296875c41.046875 0 75.15625 30.269531 81.179688 69.65625h-162.363282c6.027344-39.386719 40.136719-69.65625 81.183594-69.65625zm82.128906 222.386718h-164.257812v-13.054687h164.257812zm0-122.472656v13.054688h-164.257812v-13.054688zm0 43.3125v35.847656h-164.257812v-35.847656zm-255.367187 101.300782c-8.011719 4.722656-17.382813 6.042968-26.394531 3.71875-9.011719-2.328126-16.574219-8.023438-21.296876-16.039063-9.753906-16.542969-4.226562-37.9375 12.316407-47.691406l96.226562-56.726563v80.867188zm394.167969-12.320313c-4.726563 8.015625-12.289063 13.710937-21.296876 16.035156-9.011718 2.328125-18.382812 1.007813-26.398437-3.71875l-60.847656-35.871093v-80.867188l96.226562 56.726562c16.542969 9.753907 22.070313 31.152344 12.316407 47.695313zm0 0"/></svg>